<svg width="1196" height="630" viewBox="0 0 1196 630" fill="none" xmlns="http://www.w3.org/2000/svg">
<line y1="557.75" x2="1196" y2="557.75" stroke="#111418"/>
<line y1="442.097" x2="1196" y2="442.097" stroke="#111418"/>
<line y1="326.444" x2="1196" y2="326.444" stroke="#111418"/>
<line y1="210.791" x2="1196" y2="210.791" stroke="#111418"/>
<line y1="95.1374" x2="1196" y2="95.1374" stroke="#111418"/>
<line x1="81.3004" y1="27.538" x2="81.3004" y2="623.279" stroke="#111418"/>
<line x1="594.749" y1="27.538" x2="594.749" y2="623.279" stroke="#111418"/>
<line x1="165.819" y1="27.538" x2="165.819" y2="623.279" stroke="#111418"/>
<line x1="682.436" y1="27.538" x2="682.436" y2="623.279" stroke="#111418"/>
<line x1="251.393" y1="30.9552" x2="251.393" y2="626.697" stroke="#111418"/>
<line x1="768.011" y1="30.9552" x2="768.011" y2="626.697" stroke="#111418"/>
<line x1="339.081" y1="30.9552" x2="339.081" y2="626.697" stroke="#111418"/>
<line x1="853.586" y1="30.9552" x2="853.586" y2="626.697" stroke="#111418"/>
<line x1="424.656" y1="30.9552" x2="424.656" y2="626.697" stroke="#111418"/>
<line x1="938.104" y1="30.9552" x2="938.104" y2="626.697" stroke="#111418"/>
<line x1="509.174" y1="30.9552" x2="509.174" y2="626.697" stroke="#111418"/>
<line x1="1111.37" y1="27.538" x2="1111.37" y2="623.279" stroke="#111418"/>
<line x1="1025.79" y1="30.9552" x2="1025.79" y2="626.697" stroke="#111418"/>
<mask id="mask0_147_261" style="mask-type:alpha" maskUnits="userSpaceOnUse" x="24" y="0" width="1145" height="605">
<rect x="24" width="1145" height="605" fill="white"/>
</mask>
<g mask="url(#mask0_147_261)">
<g opacity="0.24">
<path d="M307.013 385.687H231.786C178.763 385.687 195.507 531.896 153.648 531.896C101.323 531.896 127.136 478.029 75.5094 478.029C24.5801 479.953 -31.3405 554.981 -82.2698 554.981V605H1175.73V37.5518C1122.71 37.5518 1138.15 120.202 1090.85 120.202C1043.55 120.202 1070.57 66.3351 1013.17 66.3351C964.33 66.3351 987.353 154.83 935.028 154.83C882.704 154.83 898.672 185.225 854.022 185.225C804.656 185.225 838.015 120.202 778.752 120.202C719.489 120.202 750.743 185.225 696.836 185.225C640.325 185.225 674.801 197.154 622.476 197.154C565.268 197.154 603.6 290.458 545.036 290.458C479.66 290.458 519.92 401.077 466.2 401.077C412.48 401.077 438.476 338.553 388.062 338.553C335.04 338.553 358.955 385.687 307.013 385.687Z" fill="url(#paint0_linear_147_261)"/>
</g>
<path d="M1169.56 37.5518C1116.62 37.5518 1144.48 117.76 1091.55 118.726C1038.62 119.692 1070.85 64.6099 1013.54 64.6099C964.79 64.6099 987.774 153.515 935.538 153.515C883.302 153.515 897.151 183.961 852.576 183.961C803.293 183.961 838.688 118.726 779.525 118.726C720.362 118.726 751.563 183.961 697.747 183.961C641.332 183.961 675.749 196.035 623.513 196.035C566.401 196.035 604.669 289.772 546.203 289.772C480.938 289.772 521.13 400.903 467.5 400.903C413.871 400.903 439.823 338.09 389.494 338.09C336.561 338.09 357.298 385.442 305.444 385.442C264.762 385.442 289.2 385.442 233.482 385.442C180.549 385.442 197.265 532.328 155.476 532.328C103.239 532.328 129.009 478.212 77.4694 478.212C26.626 480.145 -26.6001 553.262 -77.4435 553.262" stroke="#0145D1" stroke-width="6" stroke-linecap="round" stroke-linejoin="round"/>
<path d="M964.443 29.6509L964.443 709.651M1170.56 294.651L-77.4435 293.651" stroke="#59A7FF" stroke-opacity="0.5" stroke-width="2" stroke-dasharray="9 9"/>
<g filter="url(#filter0_d_147_261)">
<circle r="15.5" transform="matrix(-1 0 0 1 964.943 295.258)" fill="#0145D1"/>
<circle r="13" transform="matrix(-1 0 0 1 964.943 295.258)" stroke="white" stroke-width="5"/>
</g>
</g>
<defs>
<filter id="filter0_d_147_261" x="946.443" y="279.758" width="37" height="37" filterUnits="userSpaceOnUse" color-interpolation-filters="sRGB">
<feFlood flood-opacity="0" result="BackgroundImageFix"/>
<feColorMatrix in="SourceAlpha" type="matrix" values="0 0 0 0 0 0 0 0 0 0 0 0 0 0 0 0 0 0 127 0" result="hardAlpha"/>
<feOffset dy="3"/>
<feGaussianBlur stdDeviation="1.5"/>
<feComposite in2="hardAlpha" operator="out"/>
<feColorMatrix type="matrix" values="0 0 0 0 0 0 0 0 0 0 0 0 0 0 0 0 0 0 0.25 0"/>
<feBlend mode="normal" in2="BackgroundImageFix" result="effect1_dropShadow_147_261"/>
<feBlend mode="normal" in="SourceGraphic" in2="effect1_dropShadow_147_261" result="shape"/>
</filter>
<linearGradient id="paint0_linear_147_261" x1="784.564" y1="122.199" x2="889.799" y2="556.194" gradientUnits="userSpaceOnUse">
<stop stop-color="#0145D1"/>
<stop offset="0.833333" stop-color="#1A57D5" stop-opacity="0"/>
</linearGradient>
</defs>
</svg>
