<svg width="1397" height="869" viewBox="0 0 1397 869" fill="none" xmlns="http://www.w3.org/2000/svg">
<path d="M18 2H1379C1387.84 2 1395 9.16344 1395 18V849C1395 857.837 1387.84 865 1379 865H18C9.16342 865 2 857.837 2 849V18C2 9.16345 9.16344 2 18 2Z" fill="black" stroke="#111418" stroke-width="4"/>
<line x1="85" y1="694.75" x2="1281" y2="694.75" stroke="#111418"/>
<line x1="85" y1="579.097" x2="1281" y2="579.097" stroke="#111418"/>
<line x1="85" y1="463.444" x2="1281" y2="463.444" stroke="#111418"/>
<line x1="85" y1="347.791" x2="1281" y2="347.791" stroke="#111418"/>
<line x1="85" y1="232.137" x2="1281" y2="232.137" stroke="#111418"/>
<line x1="166.3" y1="164.538" x2="166.3" y2="760.279" stroke="#111418"/>
<line x1="679.749" y1="164.538" x2="679.749" y2="760.279" stroke="#111418"/>
<line x1="250.819" y1="164.538" x2="250.819" y2="760.279" stroke="#111418"/>
<line x1="767.436" y1="164.538" x2="767.436" y2="760.279" stroke="#111418"/>
<line x1="336.393" y1="167.955" x2="336.393" y2="763.697" stroke="#111418"/>
<line x1="853.011" y1="167.955" x2="853.011" y2="763.697" stroke="#111418"/>
<line x1="424.081" y1="167.955" x2="424.081" y2="763.697" stroke="#111418"/>
<line x1="938.585" y1="167.955" x2="938.585" y2="763.697" stroke="#111418"/>
<line x1="509.656" y1="167.955" x2="509.656" y2="763.697" stroke="#111418"/>
<line x1="1023.1" y1="167.955" x2="1023.1" y2="763.697" stroke="#111418"/>
<line x1="594.174" y1="167.955" x2="594.174" y2="763.697" stroke="#111418"/>
<line x1="1196.37" y1="164.538" x2="1196.37" y2="760.279" stroke="#111418"/>
<line x1="1110.79" y1="167.955" x2="1110.79" y2="763.697" stroke="#111418"/>
<mask id="mask0_329_73" style="mask-type:alpha" maskUnits="userSpaceOnUse" x="109" y="137" width="1145" height="605">
<rect x="109" y="137" width="1145" height="605" fill="white"/>
</mask>
<g mask="url(#mask0_329_73)">
<g opacity="0.24">
<path d="M392.013 522.686H316.786C263.763 522.686 280.507 668.896 238.648 668.896C186.323 668.896 212.136 615.029 160.509 615.029C109.58 616.953 53.6595 691.981 2.73022 691.981V742H1260.73V174.552C1207.71 174.552 1223.15 257.202 1175.85 257.202C1128.55 257.202 1155.57 203.335 1098.17 203.335C1049.33 203.335 1072.35 291.83 1020.03 291.83C967.704 291.83 983.672 322.225 939.022 322.225C889.656 322.225 923.015 257.202 863.752 257.202C804.489 257.201 835.743 322.225 781.836 322.225C725.325 322.225 759.801 334.154 707.476 334.154C650.268 334.154 688.6 427.458 630.036 427.458C564.66 427.458 604.92 538.077 551.2 538.077C497.48 538.077 523.476 475.553 473.062 475.553C420.04 475.553 443.955 522.686 392.013 522.686Z" fill="url(#paint0_linear_329_73)"/>
</g>
<path d="M1254.56 174.552C1201.62 174.552 1229.48 254.76 1176.55 255.726C1123.62 256.692 1155.85 201.61 1098.54 201.61C1049.79 201.61 1072.77 290.515 1020.54 290.515C968.302 290.515 982.151 320.961 937.576 320.961C888.293 320.961 923.688 255.726 864.526 255.726C805.363 255.726 836.563 320.961 782.747 320.961C726.332 320.961 760.749 333.035 708.513 333.035C651.401 333.035 689.669 426.772 631.203 426.772C565.938 426.772 606.13 537.903 552.501 537.903C498.871 537.903 524.823 475.09 474.494 475.09C421.562 475.09 442.299 522.442 390.444 522.442C349.763 522.442 374.201 522.442 318.482 522.442C265.549 522.442 282.265 669.328 240.476 669.328C188.239 669.328 214.009 615.212 162.469 615.212C111.626 617.145 58.4 690.262 7.55664 690.262" stroke="#0145D1" stroke-width="6" stroke-linecap="round" stroke-linejoin="round"/>
<path d="M1049.44 166.651L1049.44 846.651M1255.56 431.651L7.55663 430.651" stroke="#59A7FF" stroke-opacity="0.5" stroke-width="2" stroke-dasharray="9 9"/>
<g filter="url(#filter0_d_329_73)">
<circle r="15.5" transform="matrix(-1 0 0 1 1049.94 432.258)" fill="#0145D1"/>
<circle r="13" transform="matrix(-1 0 0 1 1049.94 432.258)" stroke="white" stroke-width="5"/>
</g>
</g>
<path d="M1288.26 245.162C1287.42 245.162 1286.62 245.036 1285.86 244.784C1285.11 244.52 1284.47 244.142 1283.95 243.65L1284.49 242.48C1285.08 242.96 1285.68 243.308 1286.28 243.524C1286.88 243.74 1287.52 243.848 1288.22 243.848C1289.13 243.848 1289.83 243.65 1290.31 243.254C1290.8 242.846 1291.05 242.252 1291.05 241.472C1291.05 240.728 1290.8 240.164 1290.31 239.78C1289.82 239.396 1289.1 239.204 1288.17 239.204H1286.29V237.926H1288.04C1288.86 237.926 1289.5 237.716 1289.97 237.296C1290.45 236.864 1290.69 236.276 1290.69 235.532C1290.69 234.872 1290.46 234.362 1290.02 234.002C1289.59 233.642 1288.97 233.462 1288.17 233.462C1286.85 233.462 1285.69 233.942 1284.71 234.902L1284.17 233.75C1284.64 233.246 1285.23 232.856 1285.95 232.58C1286.68 232.292 1287.45 232.148 1288.26 232.148C1289.48 232.148 1290.43 232.436 1291.12 233.012C1291.81 233.588 1292.16 234.386 1292.16 235.406C1292.16 236.114 1291.98 236.738 1291.62 237.278C1291.26 237.806 1290.76 238.19 1290.13 238.43C1290.88 238.634 1291.47 239.012 1291.89 239.564C1292.31 240.104 1292.52 240.776 1292.52 241.58C1292.52 242.672 1292.14 243.542 1291.37 244.19C1290.61 244.838 1289.58 245.162 1288.26 245.162ZM1295.81 245L1301.71 233.588H1295V232.31H1303.39V233.426L1297.45 245H1295.81ZM1309.99 245.162C1308.56 245.162 1307.45 244.856 1306.66 244.244C1305.86 243.62 1305.47 242.75 1305.47 241.634C1305.47 240.854 1305.68 240.188 1306.1 239.636C1306.53 239.084 1307.1 238.706 1307.81 238.502C1307.17 238.262 1306.67 237.878 1306.31 237.35C1305.95 236.822 1305.77 236.216 1305.77 235.532C1305.77 234.464 1306.15 233.636 1306.91 233.048C1307.68 232.448 1308.7 232.148 1309.99 232.148C1311.27 232.148 1312.3 232.448 1313.06 233.048C1313.83 233.636 1314.22 234.464 1314.22 235.532C1314.22 236.216 1314.03 236.828 1313.66 237.368C1313.3 237.896 1312.81 238.274 1312.18 238.502C1312.89 238.706 1313.45 239.084 1313.87 239.636C1314.29 240.188 1314.5 240.854 1314.5 241.634C1314.5 242.75 1314.11 243.62 1313.32 244.244C1312.52 244.856 1311.41 245.162 1309.99 245.162ZM1309.99 237.962C1310.86 237.962 1311.55 237.758 1312.04 237.35C1312.54 236.93 1312.79 236.366 1312.79 235.658C1312.79 234.938 1312.54 234.38 1312.04 233.984C1311.55 233.576 1310.86 233.372 1309.99 233.372C1309.11 233.372 1308.43 233.576 1307.93 233.984C1307.44 234.38 1307.2 234.938 1307.2 235.658C1307.2 236.366 1307.44 236.93 1307.93 237.35C1308.43 237.758 1309.11 237.962 1309.99 237.962ZM1309.99 243.938C1312.05 243.938 1313.08 243.14 1313.08 241.544C1313.08 239.972 1312.05 239.186 1309.99 239.186C1307.92 239.186 1306.89 239.972 1306.89 241.544C1306.89 243.14 1307.92 243.938 1309.99 243.938ZM1320.78 245.162C1319.33 245.162 1318.22 244.604 1317.47 243.488C1316.71 242.372 1316.33 240.758 1316.33 238.646C1316.33 236.522 1316.71 234.908 1317.47 233.804C1318.22 232.7 1319.33 232.148 1320.78 232.148C1322.24 232.148 1323.35 232.7 1324.09 233.804C1324.85 234.896 1325.22 236.504 1325.22 238.628C1325.22 240.752 1324.84 242.372 1324.07 243.488C1323.32 244.604 1322.22 245.162 1320.78 245.162ZM1320.78 243.884C1321.79 243.884 1322.53 243.458 1323.01 242.606C1323.5 241.754 1323.75 240.428 1323.75 238.628C1323.75 236.828 1323.51 235.514 1323.03 234.686C1322.55 233.846 1321.8 233.426 1320.78 233.426C1319.77 233.426 1319.02 233.846 1318.53 234.686C1318.05 235.526 1317.81 236.84 1317.81 238.628C1317.81 240.428 1318.05 241.754 1318.53 242.606C1319.02 243.458 1319.77 243.884 1320.78 243.884ZM1328.4 245V243.74H1331.3V234.092L1329.02 235.532L1328.39 234.434L1331.72 232.31H1332.78V243.74H1335.5V245H1328.4ZM1338.1 245V243.164H1339.93V245H1338.1ZM1347.85 245V242.282H1342V241.166L1348.1 232.31H1349.34V241.022H1351.23V242.282H1349.34V245H1347.85ZM1347.85 241.022V234.74L1343.53 241.022H1347.85ZM1357.52 245.162C1356.71 245.162 1355.93 245.03 1355.18 244.766C1354.44 244.502 1353.81 244.13 1353.29 243.65L1353.85 242.48C1354.97 243.392 1356.19 243.848 1357.51 243.848C1358.38 243.848 1359.07 243.602 1359.58 243.11C1360.08 242.618 1360.33 241.97 1360.33 241.166C1360.33 240.338 1360.09 239.66 1359.61 239.132C1359.13 238.604 1358.47 238.34 1357.63 238.34C1356.42 238.34 1355.47 238.844 1354.77 239.852H1353.69V232.31H1361.05V233.57H1355.15V238.106C1355.84 237.41 1356.76 237.062 1357.9 237.062C1358.69 237.062 1359.38 237.23 1359.97 237.566C1360.56 237.902 1361.01 238.376 1361.32 238.988C1361.65 239.588 1361.81 240.29 1361.81 241.094C1361.81 241.886 1361.63 242.588 1361.29 243.2C1360.94 243.812 1360.44 244.292 1359.79 244.64C1359.16 244.988 1358.4 245.162 1357.52 245.162ZM1288.26 345.162C1287.42 345.162 1286.62 345.036 1285.86 344.784C1285.11 344.52 1284.47 344.142 1283.95 343.65L1284.49 342.48C1285.08 342.96 1285.68 343.308 1286.28 343.524C1286.88 343.74 1287.52 343.848 1288.22 343.848C1289.13 343.848 1289.83 343.65 1290.31 343.254C1290.8 342.846 1291.05 342.252 1291.05 341.472C1291.05 340.728 1290.8 340.164 1290.31 339.78C1289.82 339.396 1289.1 339.204 1288.17 339.204H1286.29V337.926H1288.04C1288.86 337.926 1289.5 337.716 1289.97 337.296C1290.45 336.864 1290.69 336.276 1290.69 335.532C1290.69 334.872 1290.46 334.362 1290.02 334.002C1289.59 333.642 1288.97 333.462 1288.17 333.462C1286.85 333.462 1285.69 333.942 1284.71 334.902L1284.17 333.75C1284.64 333.246 1285.23 332.856 1285.95 332.58C1286.68 332.292 1287.45 332.148 1288.26 332.148C1289.48 332.148 1290.43 332.436 1291.12 333.012C1291.81 333.588 1292.16 334.386 1292.16 335.406C1292.16 336.114 1291.98 336.738 1291.62 337.278C1291.26 337.806 1290.76 338.19 1290.13 338.43C1290.88 338.634 1291.47 339.012 1291.89 339.564C1292.31 340.104 1292.52 340.776 1292.52 341.58C1292.52 342.672 1292.14 343.542 1291.37 344.19C1290.61 344.838 1289.58 345.162 1288.26 345.162ZM1300.58 345V342.282H1294.73V341.166L1300.83 332.31H1302.07V341.022H1303.96V342.282H1302.07V345H1300.58ZM1300.58 341.022V334.74L1296.26 341.022H1300.58ZM1309.84 345.162C1309 345.162 1308.2 345.036 1307.45 344.784C1306.69 344.52 1306.06 344.142 1305.54 343.65L1306.08 342.48C1306.67 342.96 1307.26 343.308 1307.86 343.524C1308.46 343.74 1309.11 343.848 1309.81 343.848C1310.72 343.848 1311.41 343.65 1311.89 343.254C1312.39 342.846 1312.63 342.252 1312.63 341.472C1312.63 340.728 1312.39 340.164 1311.89 339.78C1311.4 339.396 1310.69 339.204 1309.75 339.204H1307.88V337.926H1309.63C1310.44 337.926 1311.08 337.716 1311.55 337.296C1312.03 336.864 1312.27 336.276 1312.27 335.532C1312.27 334.872 1312.05 334.362 1311.61 334.002C1311.17 333.642 1310.56 333.462 1309.75 333.462C1308.43 333.462 1307.28 333.942 1306.3 334.902L1305.76 333.75C1306.22 333.246 1306.82 332.856 1307.54 332.58C1308.27 332.292 1309.04 332.148 1309.84 332.148C1311.07 332.148 1312.02 332.436 1312.7 333.012C1313.4 333.588 1313.75 334.386 1313.75 335.406C1313.75 336.114 1313.57 336.738 1313.21 337.278C1312.85 337.806 1312.35 338.19 1311.71 338.43C1312.47 338.634 1313.06 339.012 1313.48 339.564C1313.9 340.104 1314.11 340.776 1314.11 341.58C1314.11 342.672 1313.72 343.542 1312.96 344.19C1312.2 344.838 1311.16 345.162 1309.84 345.162ZM1321.05 345.162C1320.23 345.162 1319.45 345.03 1318.71 344.766C1317.96 344.502 1317.33 344.13 1316.82 343.65L1317.38 342.48C1318.49 343.392 1319.71 343.848 1321.03 343.848C1321.91 343.848 1322.6 343.602 1323.1 343.11C1323.6 342.618 1323.86 341.97 1323.86 341.166C1323.86 340.338 1323.62 339.66 1323.14 339.132C1322.66 338.604 1322 338.34 1321.16 338.34C1319.94 338.34 1318.99 338.844 1318.29 339.852H1317.21V332.31H1324.58V333.57H1318.67V338.106C1319.37 337.41 1320.29 337.062 1321.43 337.062C1322.22 337.062 1322.91 337.23 1323.5 337.566C1324.08 337.902 1324.53 338.376 1324.85 338.988C1325.17 339.588 1325.33 340.29 1325.33 341.094C1325.33 341.886 1325.16 342.588 1324.81 343.2C1324.46 343.812 1323.96 344.292 1323.32 344.64C1322.68 344.988 1321.92 345.162 1321.05 345.162ZM1331.84 345.162C1331.03 345.162 1330.25 345.03 1329.5 344.766C1328.76 344.502 1328.13 344.13 1327.61 343.65L1328.17 342.48C1329.29 343.392 1330.5 343.848 1331.82 343.848C1332.7 343.848 1333.39 343.602 1333.89 343.11C1334.4 342.618 1334.65 341.97 1334.65 341.166C1334.65 340.338 1334.41 339.66 1333.93 339.132C1333.45 338.604 1332.79 338.34 1331.95 338.34C1330.74 338.34 1329.78 338.844 1329.09 339.852H1328.01V332.31H1335.37V333.57H1329.47V338.106C1330.16 337.41 1331.08 337.062 1332.22 337.062C1333.01 337.062 1333.7 337.23 1334.29 337.566C1334.88 337.902 1335.33 338.376 1335.64 338.988C1335.96 339.588 1336.13 340.29 1336.13 341.094C1336.13 341.886 1335.95 342.588 1335.6 343.2C1335.26 343.812 1334.76 344.292 1334.11 344.64C1333.47 344.988 1332.72 345.162 1331.84 345.162ZM1338.1 345V343.164H1339.93V345H1338.1ZM1347.85 345V342.282H1342V341.166L1348.1 332.31H1349.34V341.022H1351.23V342.282H1349.34V345H1347.85ZM1347.85 341.022V334.74L1343.53 341.022H1347.85ZM1357.11 345.162C1356.27 345.162 1355.47 345.036 1354.72 344.784C1353.96 344.52 1353.32 344.142 1352.81 343.65L1353.35 342.48C1353.94 342.96 1354.53 343.308 1355.13 343.524C1355.73 343.74 1356.38 343.848 1357.07 343.848C1357.99 343.848 1358.68 343.65 1359.16 343.254C1359.65 342.846 1359.9 342.252 1359.9 341.472C1359.9 340.728 1359.65 340.164 1359.16 339.78C1358.67 339.396 1357.96 339.204 1357.02 339.204H1355.15V337.926H1356.89C1357.71 337.926 1358.35 337.716 1358.82 337.296C1359.3 336.864 1359.54 336.276 1359.54 335.532C1359.54 334.872 1359.32 334.362 1358.87 334.002C1358.44 333.642 1357.82 333.462 1357.02 333.462C1355.7 333.462 1354.55 333.942 1353.56 334.902L1353.02 333.75C1353.49 333.246 1354.09 332.856 1354.81 332.58C1355.54 332.292 1356.31 332.148 1357.11 332.148C1358.33 332.148 1359.29 332.436 1359.97 333.012C1360.67 333.588 1361.02 334.386 1361.02 335.406C1361.02 336.114 1360.84 336.738 1360.48 337.278C1360.12 337.806 1359.62 338.19 1358.98 338.43C1359.74 338.634 1360.33 339.012 1360.75 339.564C1361.17 340.104 1361.38 340.776 1361.38 341.58C1361.38 342.672 1360.99 343.542 1360.22 344.19C1359.47 344.838 1358.43 345.162 1357.11 345.162ZM1288.26 470.162C1287.42 470.162 1286.62 470.036 1285.86 469.784C1285.11 469.52 1284.47 469.142 1283.95 468.65L1284.49 467.48C1285.08 467.96 1285.68 468.308 1286.28 468.524C1286.88 468.74 1287.52 468.848 1288.22 468.848C1289.13 468.848 1289.83 468.65 1290.31 468.254C1290.8 467.846 1291.05 467.252 1291.05 466.472C1291.05 465.728 1290.8 465.164 1290.31 464.78C1289.82 464.396 1289.1 464.204 1288.17 464.204H1286.29V462.926H1288.04C1288.86 462.926 1289.5 462.716 1289.97 462.296C1290.45 461.864 1290.69 461.276 1290.69 460.532C1290.69 459.872 1290.46 459.362 1290.02 459.002C1289.59 458.642 1288.97 458.462 1288.17 458.462C1286.85 458.462 1285.69 458.942 1284.71 459.902L1284.17 458.75C1284.64 458.246 1285.23 457.856 1285.95 457.58C1286.68 457.292 1287.45 457.148 1288.26 457.148C1289.48 457.148 1290.43 457.436 1291.12 458.012C1291.81 458.588 1292.16 459.386 1292.16 460.406C1292.16 461.114 1291.98 461.738 1291.62 462.278C1291.26 462.806 1290.76 463.19 1290.13 463.43C1290.88 463.634 1291.47 464.012 1291.89 464.564C1292.31 465.104 1292.52 465.776 1292.52 466.58C1292.52 467.672 1292.14 468.542 1291.37 469.19C1290.61 469.838 1289.58 470.162 1288.26 470.162ZM1300.58 470V467.282H1294.73V466.166L1300.83 457.31H1302.07V466.022H1303.96V467.282H1302.07V470H1300.58ZM1300.58 466.022V459.74L1296.26 466.022H1300.58ZM1306.21 470V468.884L1310.54 464.204C1311.16 463.532 1311.59 462.92 1311.86 462.368C1312.13 461.816 1312.27 461.252 1312.27 460.676C1312.27 459.2 1311.41 458.462 1309.7 458.462C1308.41 458.462 1307.28 458.942 1306.3 459.902L1305.74 458.75C1306.21 458.27 1306.8 457.886 1307.52 457.598C1308.25 457.298 1309.02 457.148 1309.82 457.148C1311.1 457.148 1312.07 457.448 1312.74 458.048C1313.42 458.636 1313.77 459.476 1313.77 460.568C1313.77 461.324 1313.58 462.068 1313.21 462.8C1312.84 463.52 1312.27 464.288 1311.5 465.104L1308.1 468.74H1314.29V470H1306.21ZM1320.63 470.162C1319.79 470.162 1319 470.036 1318.24 469.784C1317.48 469.52 1316.85 469.142 1316.33 468.65L1316.87 467.48C1317.46 467.96 1318.05 468.308 1318.65 468.524C1319.25 468.74 1319.9 468.848 1320.6 468.848C1321.51 468.848 1322.21 468.65 1322.69 468.254C1323.18 467.846 1323.42 467.252 1323.42 466.472C1323.42 465.728 1323.18 465.164 1322.69 464.78C1322.19 464.396 1321.48 464.204 1320.54 464.204H1318.67V462.926H1320.42C1321.23 462.926 1321.88 462.716 1322.34 462.296C1322.82 461.864 1323.06 461.276 1323.06 460.532C1323.06 459.872 1322.84 459.362 1322.4 459.002C1321.97 458.642 1321.35 458.462 1320.54 458.462C1319.22 458.462 1318.07 458.942 1317.09 459.902L1316.55 458.75C1317.02 458.246 1317.61 457.856 1318.33 457.58C1319.06 457.292 1319.83 457.148 1320.63 457.148C1321.86 457.148 1322.81 457.436 1323.5 458.012C1324.19 458.588 1324.54 459.386 1324.54 460.406C1324.54 461.114 1324.36 461.738 1324 462.278C1323.64 462.806 1323.14 463.19 1322.51 463.43C1323.26 463.634 1323.85 464.012 1324.27 464.564C1324.69 465.104 1324.9 465.776 1324.9 466.58C1324.9 467.672 1324.52 468.542 1323.75 469.19C1322.99 469.838 1321.95 470.162 1320.63 470.162ZM1331.84 470.162C1331.03 470.162 1330.25 470.03 1329.5 469.766C1328.76 469.502 1328.13 469.13 1327.61 468.65L1328.17 467.48C1329.29 468.392 1330.5 468.848 1331.82 468.848C1332.7 468.848 1333.39 468.602 1333.89 468.11C1334.4 467.618 1334.65 466.97 1334.65 466.166C1334.65 465.338 1334.41 464.66 1333.93 464.132C1333.45 463.604 1332.79 463.34 1331.95 463.34C1330.74 463.34 1329.78 463.844 1329.09 464.852H1328.01V457.31H1335.37V458.57H1329.47V463.106C1330.16 462.41 1331.08 462.062 1332.22 462.062C1333.01 462.062 1333.7 462.23 1334.29 462.566C1334.88 462.902 1335.33 463.376 1335.64 463.988C1335.96 464.588 1336.13 465.29 1336.13 466.094C1336.13 466.886 1335.95 467.588 1335.6 468.2C1335.26 468.812 1334.76 469.292 1334.11 469.64C1333.47 469.988 1332.72 470.162 1331.84 470.162ZM1338.1 470V468.164H1339.93V470H1338.1ZM1346.89 470.162C1345.39 470.162 1344.23 469.622 1343.42 468.542C1342.61 467.45 1342.21 465.926 1342.21 463.97C1342.21 461.774 1342.66 460.088 1343.56 458.912C1344.46 457.736 1345.72 457.148 1347.34 457.148C1347.99 457.148 1348.64 457.286 1349.29 457.562C1349.95 457.838 1350.49 458.21 1350.91 458.678L1350.37 459.83C1349.92 459.374 1349.44 459.032 1348.91 458.804C1348.39 458.576 1347.86 458.462 1347.31 458.462C1346.13 458.462 1345.22 458.9 1344.59 459.776C1343.96 460.652 1343.65 461.954 1343.65 463.682V464.564C1343.88 463.772 1344.3 463.154 1344.91 462.71C1345.54 462.266 1346.27 462.044 1347.11 462.044C1347.85 462.044 1348.51 462.218 1349.09 462.566C1349.66 462.902 1350.11 463.37 1350.44 463.97C1350.76 464.57 1350.92 465.26 1350.92 466.04C1350.92 466.844 1350.75 467.558 1350.4 468.182C1350.07 468.794 1349.59 469.28 1348.98 469.64C1348.38 469.988 1347.68 470.162 1346.89 470.162ZM1346.8 468.902C1347.61 468.902 1348.25 468.644 1348.75 468.128C1349.25 467.612 1349.5 466.934 1349.5 466.094C1349.5 465.266 1349.25 464.594 1348.75 464.078C1348.25 463.55 1347.61 463.286 1346.8 463.286C1346 463.286 1345.34 463.55 1344.84 464.078C1344.35 464.594 1344.1 465.266 1344.1 466.094C1344.1 466.934 1344.35 467.612 1344.84 468.128C1345.34 468.644 1346 468.902 1346.8 468.902ZM1358.64 470V467.282H1352.79V466.166L1358.89 457.31H1360.13V466.022H1362.02V467.282H1360.13V470H1358.64ZM1358.64 466.022V459.74L1354.32 466.022H1358.64ZM1288.26 595.162C1287.42 595.162 1286.62 595.036 1285.86 594.784C1285.11 594.52 1284.47 594.142 1283.95 593.65L1284.49 592.48C1285.08 592.96 1285.68 593.308 1286.28 593.524C1286.88 593.74 1287.52 593.848 1288.22 593.848C1289.13 593.848 1289.83 593.65 1290.31 593.254C1290.8 592.846 1291.05 592.252 1291.05 591.472C1291.05 590.728 1290.8 590.164 1290.31 589.78C1289.82 589.396 1289.1 589.204 1288.17 589.204H1286.29V587.926H1288.04C1288.86 587.926 1289.5 587.716 1289.97 587.296C1290.45 586.864 1290.69 586.276 1290.69 585.532C1290.69 584.872 1290.46 584.362 1290.02 584.002C1289.59 583.642 1288.97 583.462 1288.17 583.462C1286.85 583.462 1285.69 583.942 1284.71 584.902L1284.17 583.75C1284.64 583.246 1285.23 582.856 1285.95 582.58C1286.68 582.292 1287.45 582.148 1288.26 582.148C1289.48 582.148 1290.43 582.436 1291.12 583.012C1291.81 583.588 1292.16 584.386 1292.16 585.406C1292.16 586.114 1291.98 586.738 1291.62 587.278C1291.26 587.806 1290.76 588.19 1290.13 588.43C1290.88 588.634 1291.47 589.012 1291.89 589.564C1292.31 590.104 1292.52 590.776 1292.52 591.58C1292.52 592.672 1292.14 593.542 1291.37 594.19C1290.61 594.838 1289.58 595.162 1288.26 595.162ZM1299.46 595.162C1298.65 595.162 1297.87 595.03 1297.12 594.766C1296.38 594.502 1295.75 594.13 1295.23 593.65L1295.79 592.48C1296.91 593.392 1298.12 593.848 1299.44 593.848C1300.32 593.848 1301.01 593.602 1301.51 593.11C1302.02 592.618 1302.27 591.97 1302.27 591.166C1302.27 590.338 1302.03 589.66 1301.55 589.132C1301.07 588.604 1300.41 588.34 1299.57 588.34C1298.36 588.34 1297.4 588.844 1296.71 589.852H1295.63V582.31H1302.99V583.57H1297.09V588.106C1297.78 587.41 1298.7 587.062 1299.84 587.062C1300.63 587.062 1301.32 587.23 1301.91 587.566C1302.5 587.902 1302.95 588.376 1303.26 588.988C1303.58 589.588 1303.75 590.29 1303.75 591.094C1303.75 591.886 1303.57 592.588 1303.22 593.2C1302.88 593.812 1302.38 594.292 1301.73 594.64C1301.09 594.988 1300.34 595.162 1299.46 595.162ZM1311.37 595V592.282H1305.52V591.166L1311.62 582.31H1312.87V591.022H1314.76V592.282H1312.87V595H1311.37ZM1311.37 591.022V584.74L1307.05 591.022H1311.37ZM1321.05 595.162C1320.23 595.162 1319.45 595.03 1318.71 594.766C1317.96 594.502 1317.33 594.13 1316.82 593.65L1317.38 592.48C1318.49 593.392 1319.71 593.848 1321.03 593.848C1321.91 593.848 1322.6 593.602 1323.1 593.11C1323.6 592.618 1323.86 591.97 1323.86 591.166C1323.86 590.338 1323.62 589.66 1323.14 589.132C1322.66 588.604 1322 588.34 1321.16 588.34C1319.94 588.34 1318.99 588.844 1318.29 589.852H1317.21V582.31H1324.58V583.57H1318.67V588.106C1319.37 587.41 1320.29 587.062 1321.43 587.062C1322.22 587.062 1322.91 587.23 1323.5 587.566C1324.08 587.902 1324.53 588.376 1324.85 588.988C1325.17 589.588 1325.33 590.29 1325.33 591.094C1325.33 591.886 1325.16 592.588 1324.81 593.2C1324.46 593.812 1323.96 594.292 1323.32 594.64C1322.68 594.988 1321.92 595.162 1321.05 595.162ZM1332.96 595V592.282H1327.11V591.166L1333.21 582.31H1334.45V591.022H1336.34V592.282H1334.45V595H1332.96ZM1332.96 591.022V584.74L1328.64 591.022H1332.96ZM1338.1 595V593.164H1339.93V595H1338.1ZM1346.46 595.162C1345.01 595.162 1343.9 594.604 1343.15 593.488C1342.39 592.372 1342.01 590.758 1342.01 588.646C1342.01 586.522 1342.39 584.908 1343.15 583.804C1343.9 582.7 1345.01 582.148 1346.46 582.148C1347.92 582.148 1349.03 582.7 1349.77 583.804C1350.53 584.896 1350.91 586.504 1350.91 588.628C1350.91 590.752 1350.52 592.372 1349.75 593.488C1349 594.604 1347.9 595.162 1346.46 595.162ZM1346.46 593.884C1347.47 593.884 1348.21 593.458 1348.69 592.606C1349.18 591.754 1349.43 590.428 1349.43 588.628C1349.43 586.828 1349.19 585.514 1348.71 584.686C1348.23 583.846 1347.48 583.426 1346.46 583.426C1345.45 583.426 1344.7 583.846 1344.21 584.686C1343.73 585.526 1343.49 586.84 1343.49 588.628C1343.49 590.428 1343.73 591.754 1344.21 592.606C1344.7 593.458 1345.45 593.884 1346.46 593.884ZM1357.25 595.162C1355.8 595.162 1354.7 594.604 1353.94 593.488C1353.19 592.372 1352.81 590.758 1352.81 588.646C1352.81 586.522 1353.19 584.908 1353.94 583.804C1354.7 582.7 1355.8 582.148 1357.25 582.148C1358.72 582.148 1359.82 582.7 1360.57 583.804C1361.32 584.896 1361.7 586.504 1361.7 588.628C1361.7 590.752 1361.32 592.372 1360.55 593.488C1359.79 594.604 1358.69 595.162 1357.25 595.162ZM1357.25 593.884C1358.26 593.884 1359.01 593.458 1359.49 592.606C1359.98 591.754 1360.22 590.428 1360.22 588.628C1360.22 586.828 1359.98 585.514 1359.5 584.686C1359.02 583.846 1358.27 583.426 1357.25 583.426C1356.25 583.426 1355.5 583.846 1355 584.686C1354.52 585.526 1354.28 586.84 1354.28 588.628C1354.28 590.428 1354.52 591.754 1355 592.606C1355.5 593.458 1356.25 593.884 1357.25 593.884ZM1288.26 695.162C1287.42 695.162 1286.62 695.036 1285.86 694.784C1285.11 694.52 1284.47 694.142 1283.95 693.65L1284.49 692.48C1285.08 692.96 1285.68 693.308 1286.28 693.524C1286.88 693.74 1287.52 693.848 1288.22 693.848C1289.13 693.848 1289.83 693.65 1290.31 693.254C1290.8 692.846 1291.05 692.252 1291.05 691.472C1291.05 690.728 1290.8 690.164 1290.31 689.78C1289.82 689.396 1289.1 689.204 1288.17 689.204H1286.29V687.926H1288.04C1288.86 687.926 1289.5 687.716 1289.97 687.296C1290.45 686.864 1290.69 686.276 1290.69 685.532C1290.69 684.872 1290.46 684.362 1290.02 684.002C1289.59 683.642 1288.97 683.462 1288.17 683.462C1286.85 683.462 1285.69 683.942 1284.71 684.902L1284.17 683.75C1284.64 683.246 1285.23 682.856 1285.95 682.58C1286.68 682.292 1287.45 682.148 1288.26 682.148C1289.48 682.148 1290.43 682.436 1291.12 683.012C1291.81 683.588 1292.16 684.386 1292.16 685.406C1292.16 686.114 1291.98 686.738 1291.62 687.278C1291.26 687.806 1290.76 688.19 1290.13 688.43C1290.88 688.634 1291.47 689.012 1291.89 689.564C1292.31 690.104 1292.52 690.776 1292.52 691.58C1292.52 692.672 1292.14 693.542 1291.37 694.19C1290.61 694.838 1289.58 695.162 1288.26 695.162ZM1299.46 695.162C1298.65 695.162 1297.87 695.03 1297.12 694.766C1296.38 694.502 1295.75 694.13 1295.23 693.65L1295.79 692.48C1296.91 693.392 1298.12 693.848 1299.44 693.848C1300.32 693.848 1301.01 693.602 1301.51 693.11C1302.02 692.618 1302.27 691.97 1302.27 691.166C1302.27 690.338 1302.03 689.66 1301.55 689.132C1301.07 688.604 1300.41 688.34 1299.57 688.34C1298.36 688.34 1297.4 688.844 1296.71 689.852H1295.63V682.31H1302.99V683.57H1297.09V688.106C1297.78 687.41 1298.7 687.062 1299.84 687.062C1300.63 687.062 1301.32 687.23 1301.91 687.566C1302.5 687.902 1302.95 688.376 1303.26 688.988C1303.58 689.588 1303.75 690.29 1303.75 691.094C1303.75 691.886 1303.57 692.588 1303.22 693.2C1302.88 693.812 1302.38 694.292 1301.73 694.64C1301.09 694.988 1300.34 695.162 1299.46 695.162ZM1311.37 695V692.282H1305.52V691.166L1311.62 682.31H1312.87V691.022H1314.76V692.282H1312.87V695H1311.37ZM1311.37 691.022V684.74L1307.05 691.022H1311.37ZM1321.05 695.162C1320.23 695.162 1319.45 695.03 1318.71 694.766C1317.96 694.502 1317.33 694.13 1316.82 693.65L1317.38 692.48C1318.49 693.392 1319.71 693.848 1321.03 693.848C1321.91 693.848 1322.6 693.602 1323.1 693.11C1323.6 692.618 1323.86 691.97 1323.86 691.166C1323.86 690.338 1323.62 689.66 1323.14 689.132C1322.66 688.604 1322 688.34 1321.16 688.34C1319.94 688.34 1318.99 688.844 1318.29 689.852H1317.21V682.31H1324.58V683.57H1318.67V688.106C1319.37 687.41 1320.29 687.062 1321.43 687.062C1322.22 687.062 1322.91 687.23 1323.5 687.566C1324.08 687.902 1324.53 688.376 1324.85 688.988C1325.17 689.588 1325.33 690.29 1325.33 691.094C1325.33 691.886 1325.16 692.588 1324.81 693.2C1324.46 693.812 1323.96 694.292 1323.32 694.64C1322.68 694.988 1321.92 695.162 1321.05 695.162ZM1332 695.162C1330.5 695.162 1329.35 694.622 1328.53 693.542C1327.73 692.45 1327.32 690.926 1327.32 688.97C1327.32 686.774 1327.77 685.088 1328.67 683.912C1329.57 682.736 1330.83 682.148 1332.45 682.148C1333.1 682.148 1333.75 682.286 1334.4 682.562C1335.06 682.838 1335.6 683.21 1336.02 683.678L1335.48 684.83C1335.03 684.374 1334.55 684.032 1334.02 683.804C1333.5 683.576 1332.97 683.462 1332.42 683.462C1331.24 683.462 1330.34 683.9 1329.7 684.776C1329.08 685.652 1328.76 686.954 1328.76 688.682V689.564C1328.99 688.772 1329.41 688.154 1330.02 687.71C1330.65 687.266 1331.38 687.044 1332.22 687.044C1332.96 687.044 1333.62 687.218 1334.2 687.566C1334.78 687.902 1335.23 688.37 1335.55 688.97C1335.87 689.57 1336.04 690.26 1336.04 691.04C1336.04 691.844 1335.86 692.558 1335.51 693.182C1335.18 693.794 1334.7 694.28 1334.09 694.64C1333.49 694.988 1332.8 695.162 1332 695.162ZM1331.91 693.902C1332.72 693.902 1333.37 693.644 1333.86 693.128C1334.36 692.612 1334.61 691.934 1334.61 691.094C1334.61 690.266 1334.36 689.594 1333.86 689.078C1333.37 688.55 1332.72 688.286 1331.91 688.286C1331.11 688.286 1330.46 688.55 1329.95 689.078C1329.46 689.594 1329.21 690.266 1329.21 691.094C1329.21 691.934 1329.46 692.612 1329.95 693.128C1330.46 693.644 1331.11 693.902 1331.91 693.902ZM1338.1 695V693.164H1339.93V695H1338.1ZM1346.46 695.162C1345.01 695.162 1343.9 694.604 1343.15 693.488C1342.39 692.372 1342.01 690.758 1342.01 688.646C1342.01 686.522 1342.39 684.908 1343.15 683.804C1343.9 682.7 1345.01 682.148 1346.46 682.148C1347.92 682.148 1349.03 682.7 1349.77 683.804C1350.53 684.896 1350.91 686.504 1350.91 688.628C1350.91 690.752 1350.52 692.372 1349.75 693.488C1349 694.604 1347.9 695.162 1346.46 695.162ZM1346.46 693.884C1347.47 693.884 1348.21 693.458 1348.69 692.606C1349.18 691.754 1349.43 690.428 1349.43 688.628C1349.43 686.828 1349.19 685.514 1348.71 684.686C1348.23 683.846 1347.48 683.426 1346.46 683.426C1345.45 683.426 1344.7 683.846 1344.21 684.686C1343.73 685.526 1343.49 686.84 1343.49 688.628C1343.49 690.428 1343.73 691.754 1344.21 692.606C1344.7 693.458 1345.45 693.884 1346.46 693.884ZM1357.25 695.162C1355.8 695.162 1354.7 694.604 1353.94 693.488C1353.19 692.372 1352.81 690.758 1352.81 688.646C1352.81 686.522 1353.19 684.908 1353.94 683.804C1354.7 682.7 1355.8 682.148 1357.25 682.148C1358.72 682.148 1359.82 682.7 1360.57 683.804C1361.32 684.896 1361.7 686.504 1361.7 688.628C1361.7 690.752 1361.32 692.372 1360.55 693.488C1359.79 694.604 1358.69 695.162 1357.25 695.162ZM1357.25 693.884C1358.26 693.884 1359.01 693.458 1359.49 692.606C1359.98 691.754 1360.22 690.428 1360.22 688.628C1360.22 686.828 1359.98 685.514 1359.5 684.686C1359.02 683.846 1358.27 683.426 1357.25 683.426C1356.25 683.426 1355.5 683.846 1355 684.686C1354.52 685.526 1354.28 686.84 1354.28 688.628C1354.28 690.428 1354.52 691.754 1355 692.606C1355.5 693.458 1356.25 693.884 1357.25 693.884Z" fill="#5E5E63"/>
<path d="M147.4 807.162C145.948 807.162 144.844 806.604 144.088 805.488C143.332 804.372 142.954 802.758 142.954 800.646C142.954 798.522 143.332 796.908 144.088 795.804C144.844 794.7 145.948 794.148 147.4 794.148C148.864 794.148 149.968 794.7 150.712 795.804C151.468 796.896 151.846 798.504 151.846 800.628C151.846 802.752 151.462 804.372 150.694 805.488C149.938 806.604 148.84 807.162 147.4 807.162ZM147.4 805.884C148.408 805.884 149.152 805.458 149.632 804.606C150.124 803.754 150.37 802.428 150.37 800.628C150.37 798.828 150.13 797.514 149.65 796.686C149.17 795.846 148.42 795.426 147.4 795.426C146.392 795.426 145.642 795.846 145.15 796.686C144.67 797.526 144.43 798.84 144.43 800.628C144.43 802.428 144.67 803.754 145.15 804.606C145.642 805.458 146.392 805.884 147.4 805.884ZM155.025 807V805.74H157.923V796.092L155.637 797.532L155.007 796.434L158.337 794.31H159.399V805.74H162.117V807H155.025ZM164.72 800.088V798.252H166.556V800.088H164.72ZM164.72 807V805.164H166.556V807H164.72ZM173.082 807.162C171.63 807.162 170.526 806.604 169.77 805.488C169.014 804.372 168.636 802.758 168.636 800.646C168.636 798.522 169.014 796.908 169.77 795.804C170.526 794.7 171.63 794.148 173.082 794.148C174.546 794.148 175.65 794.7 176.394 795.804C177.15 796.896 177.528 798.504 177.528 800.628C177.528 802.752 177.144 804.372 176.376 805.488C175.62 806.604 174.522 807.162 173.082 807.162ZM173.082 805.884C174.09 805.884 174.834 805.458 175.314 804.606C175.806 803.754 176.052 802.428 176.052 800.628C176.052 798.828 175.812 797.514 175.332 796.686C174.852 795.846 174.102 795.426 173.082 795.426C172.074 795.426 171.324 795.846 170.832 796.686C170.352 797.526 170.112 798.84 170.112 800.628C170.112 802.428 170.352 803.754 170.832 804.606C171.324 805.458 172.074 805.884 173.082 805.884ZM183.875 807.162C182.423 807.162 181.319 806.604 180.563 805.488C179.807 804.372 179.429 802.758 179.429 800.646C179.429 798.522 179.807 796.908 180.563 795.804C181.319 794.7 182.423 794.148 183.875 794.148C185.339 794.148 186.443 794.7 187.187 795.804C187.943 796.896 188.321 798.504 188.321 800.628C188.321 802.752 187.937 804.372 187.169 805.488C186.413 806.604 185.315 807.162 183.875 807.162ZM183.875 805.884C184.883 805.884 185.627 805.458 186.107 804.606C186.599 803.754 186.845 802.428 186.845 800.628C186.845 798.828 186.605 797.514 186.125 796.686C185.645 795.846 184.895 795.426 183.875 795.426C182.867 795.426 182.117 795.846 181.625 796.686C181.145 797.526 180.905 798.84 180.905 800.628C180.905 802.428 181.145 803.754 181.625 804.606C182.117 805.458 182.867 805.884 183.875 805.884ZM231.652 807.162C230.2 807.162 229.096 806.604 228.34 805.488C227.584 804.372 227.206 802.758 227.206 800.646C227.206 798.522 227.584 796.908 228.34 795.804C229.096 794.7 230.2 794.148 231.652 794.148C233.116 794.148 234.22 794.7 234.964 795.804C235.72 796.896 236.098 798.504 236.098 800.628C236.098 802.752 235.714 804.372 234.946 805.488C234.19 806.604 233.092 807.162 231.652 807.162ZM231.652 805.884C232.66 805.884 233.404 805.458 233.884 804.606C234.376 803.754 234.622 802.428 234.622 800.628C234.622 798.828 234.382 797.514 233.902 796.686C233.422 795.846 232.672 795.426 231.652 795.426C230.644 795.426 229.894 795.846 229.402 796.686C228.922 797.526 228.682 798.84 228.682 800.628C228.682 802.428 228.922 803.754 229.402 804.606C229.894 805.458 230.644 805.884 231.652 805.884ZM238.665 807V805.884L243.003 801.204C243.615 800.532 244.053 799.92 244.317 799.368C244.593 798.816 244.731 798.252 244.731 797.676C244.731 796.2 243.873 795.462 242.157 795.462C240.873 795.462 239.739 795.942 238.755 796.902L238.197 795.75C238.665 795.27 239.259 794.886 239.979 794.598C240.711 794.298 241.479 794.148 242.283 794.148C243.555 794.148 244.527 794.448 245.199 795.048C245.883 795.636 246.225 796.476 246.225 797.568C246.225 798.324 246.039 799.068 245.667 799.8C245.295 800.52 244.725 801.288 243.957 802.104L240.555 805.74H246.747V807H238.665ZM248.972 800.088V798.252H250.808V800.088H248.972ZM248.972 807V805.164H250.808V807H248.972ZM257.334 807.162C255.882 807.162 254.778 806.604 254.022 805.488C253.266 804.372 252.888 802.758 252.888 800.646C252.888 798.522 253.266 796.908 254.022 795.804C254.778 794.7 255.882 794.148 257.334 794.148C258.798 794.148 259.902 794.7 260.646 795.804C261.402 796.896 261.78 798.504 261.78 800.628C261.78 802.752 261.396 804.372 260.628 805.488C259.872 806.604 258.774 807.162 257.334 807.162ZM257.334 805.884C258.342 805.884 259.086 805.458 259.566 804.606C260.058 803.754 260.304 802.428 260.304 800.628C260.304 798.828 260.064 797.514 259.584 796.686C259.104 795.846 258.354 795.426 257.334 795.426C256.326 795.426 255.576 795.846 255.084 796.686C254.604 797.526 254.364 798.84 254.364 800.628C254.364 802.428 254.604 803.754 255.084 804.606C255.576 805.458 256.326 805.884 257.334 805.884ZM268.127 807.162C266.675 807.162 265.571 806.604 264.815 805.488C264.059 804.372 263.681 802.758 263.681 800.646C263.681 798.522 264.059 796.908 264.815 795.804C265.571 794.7 266.675 794.148 268.127 794.148C269.591 794.148 270.695 794.7 271.439 795.804C272.195 796.896 272.573 798.504 272.573 800.628C272.573 802.752 272.189 804.372 271.421 805.488C270.665 806.604 269.567 807.162 268.127 807.162ZM268.127 805.884C269.135 805.884 269.879 805.458 270.359 804.606C270.851 803.754 271.097 802.428 271.097 800.628C271.097 798.828 270.857 797.514 270.377 796.686C269.897 795.846 269.147 795.426 268.127 795.426C267.119 795.426 266.369 795.846 265.877 796.686C265.397 797.526 265.157 798.84 265.157 800.628C265.157 802.428 265.397 803.754 265.877 804.606C266.369 805.458 267.119 805.884 268.127 805.884ZM315.904 807.162C314.452 807.162 313.348 806.604 312.592 805.488C311.836 804.372 311.458 802.758 311.458 800.646C311.458 798.522 311.836 796.908 312.592 795.804C313.348 794.7 314.452 794.148 315.904 794.148C317.368 794.148 318.472 794.7 319.216 795.804C319.972 796.896 320.35 798.504 320.35 800.628C320.35 802.752 319.966 804.372 319.198 805.488C318.442 806.604 317.344 807.162 315.904 807.162ZM315.904 805.884C316.912 805.884 317.656 805.458 318.136 804.606C318.628 803.754 318.874 802.428 318.874 800.628C318.874 798.828 318.634 797.514 318.154 796.686C317.674 795.846 316.924 795.426 315.904 795.426C314.896 795.426 314.146 795.846 313.654 796.686C313.174 797.526 312.934 798.84 312.934 800.628C312.934 802.428 313.174 803.754 313.654 804.606C314.146 805.458 314.896 805.884 315.904 805.884ZM326.553 807.162C325.713 807.162 324.915 807.036 324.159 806.784C323.403 806.52 322.767 806.142 322.251 805.65L322.791 804.48C323.379 804.96 323.973 805.308 324.573 805.524C325.173 805.74 325.821 805.848 326.517 805.848C327.429 805.848 328.125 805.65 328.605 805.254C329.097 804.846 329.343 804.252 329.343 803.472C329.343 802.728 329.097 802.164 328.605 801.78C328.113 801.396 327.399 801.204 326.463 801.204H324.591V799.926H326.337C327.153 799.926 327.795 799.716 328.263 799.296C328.743 798.864 328.983 798.276 328.983 797.532C328.983 796.872 328.761 796.362 328.317 796.002C327.885 795.642 327.267 795.462 326.463 795.462C325.143 795.462 323.991 795.942 323.007 796.902L322.467 795.75C322.935 795.246 323.529 794.856 324.249 794.58C324.981 794.292 325.749 794.148 326.553 794.148C327.777 794.148 328.731 794.436 329.415 795.012C330.111 795.588 330.459 796.386 330.459 797.406C330.459 798.114 330.279 798.738 329.919 799.278C329.559 799.806 329.061 800.19 328.425 800.43C329.181 800.634 329.769 801.012 330.189 801.564C330.609 802.104 330.819 802.776 330.819 803.58C330.819 804.672 330.435 805.542 329.667 806.19C328.911 806.838 327.873 807.162 326.553 807.162ZM333.224 800.088V798.252H335.06V800.088H333.224ZM333.224 807V805.164H335.06V807H333.224ZM341.586 807.162C340.134 807.162 339.03 806.604 338.274 805.488C337.518 804.372 337.14 802.758 337.14 800.646C337.14 798.522 337.518 796.908 338.274 795.804C339.03 794.7 340.134 794.148 341.586 794.148C343.05 794.148 344.154 794.7 344.898 795.804C345.654 796.896 346.032 798.504 346.032 800.628C346.032 802.752 345.648 804.372 344.88 805.488C344.124 806.604 343.026 807.162 341.586 807.162ZM341.586 805.884C342.594 805.884 343.338 805.458 343.818 804.606C344.31 803.754 344.556 802.428 344.556 800.628C344.556 798.828 344.316 797.514 343.836 796.686C343.356 795.846 342.606 795.426 341.586 795.426C340.578 795.426 339.828 795.846 339.336 796.686C338.856 797.526 338.616 798.84 338.616 800.628C338.616 802.428 338.856 803.754 339.336 804.606C339.828 805.458 340.578 805.884 341.586 805.884ZM352.379 807.162C350.927 807.162 349.823 806.604 349.067 805.488C348.311 804.372 347.933 802.758 347.933 800.646C347.933 798.522 348.311 796.908 349.067 795.804C349.823 794.7 350.927 794.148 352.379 794.148C353.843 794.148 354.947 794.7 355.691 795.804C356.447 796.896 356.825 798.504 356.825 800.628C356.825 802.752 356.441 804.372 355.673 805.488C354.917 806.604 353.819 807.162 352.379 807.162ZM352.379 805.884C353.387 805.884 354.131 805.458 354.611 804.606C355.103 803.754 355.349 802.428 355.349 800.628C355.349 798.828 355.109 797.514 354.629 796.686C354.149 795.846 353.399 795.426 352.379 795.426C351.371 795.426 350.621 795.846 350.129 796.686C349.649 797.526 349.409 798.84 349.409 800.628C349.409 802.428 349.649 803.754 350.129 804.606C350.621 805.458 351.371 805.884 352.379 805.884ZM404.779 807.162C403.327 807.162 402.223 806.604 401.467 805.488C400.711 804.372 400.333 802.758 400.333 800.646C400.333 798.522 400.711 796.908 401.467 795.804C402.223 794.7 403.327 794.148 404.779 794.148C406.243 794.148 407.347 794.7 408.091 795.804C408.847 796.896 409.225 798.504 409.225 800.628C409.225 802.752 408.841 804.372 408.073 805.488C407.317 806.604 406.219 807.162 404.779 807.162ZM404.779 805.884C405.787 805.884 406.531 805.458 407.011 804.606C407.503 803.754 407.749 802.428 407.749 800.628C407.749 798.828 407.509 797.514 407.029 796.686C406.549 795.846 405.799 795.426 404.779 795.426C403.771 795.426 403.021 795.846 402.529 796.686C402.049 797.526 401.809 798.84 401.809 800.628C401.809 802.428 402.049 803.754 402.529 804.606C403.021 805.458 403.771 805.884 404.779 805.884ZM416.958 807V804.282H411.108V803.166L417.21 794.31H418.452V803.022H420.342V804.282H418.452V807H416.958ZM416.958 803.022V796.74L412.638 803.022H416.958ZM422.099 800.088V798.252H423.935V800.088H422.099ZM422.099 807V805.164H423.935V807H422.099ZM430.461 807.162C429.009 807.162 427.905 806.604 427.149 805.488C426.393 804.372 426.015 802.758 426.015 800.646C426.015 798.522 426.393 796.908 427.149 795.804C427.905 794.7 429.009 794.148 430.461 794.148C431.925 794.148 433.029 794.7 433.773 795.804C434.529 796.896 434.907 798.504 434.907 800.628C434.907 802.752 434.523 804.372 433.755 805.488C432.999 806.604 431.901 807.162 430.461 807.162ZM430.461 805.884C431.469 805.884 432.213 805.458 432.693 804.606C433.185 803.754 433.431 802.428 433.431 800.628C433.431 798.828 433.191 797.514 432.711 796.686C432.231 795.846 431.481 795.426 430.461 795.426C429.453 795.426 428.703 795.846 428.211 796.686C427.731 797.526 427.491 798.84 427.491 800.628C427.491 802.428 427.731 803.754 428.211 804.606C428.703 805.458 429.453 805.884 430.461 805.884ZM441.254 807.162C439.802 807.162 438.698 806.604 437.942 805.488C437.186 804.372 436.808 802.758 436.808 800.646C436.808 798.522 437.186 796.908 437.942 795.804C438.698 794.7 439.802 794.148 441.254 794.148C442.718 794.148 443.822 794.7 444.566 795.804C445.322 796.896 445.7 798.504 445.7 800.628C445.7 802.752 445.316 804.372 444.548 805.488C443.792 806.604 442.694 807.162 441.254 807.162ZM441.254 805.884C442.262 805.884 443.006 805.458 443.486 804.606C443.978 803.754 444.224 802.428 444.224 800.628C444.224 798.828 443.984 797.514 443.504 796.686C443.024 795.846 442.274 795.426 441.254 795.426C440.246 795.426 439.496 795.846 439.004 796.686C438.524 797.526 438.284 798.84 438.284 800.628C438.284 802.428 438.524 803.754 439.004 804.606C439.496 805.458 440.246 805.884 441.254 805.884ZM493.654 807.162C492.202 807.162 491.098 806.604 490.342 805.488C489.586 804.372 489.208 802.758 489.208 800.646C489.208 798.522 489.586 796.908 490.342 795.804C491.098 794.7 492.202 794.148 493.654 794.148C495.118 794.148 496.222 794.7 496.966 795.804C497.722 796.896 498.1 798.504 498.1 800.628C498.1 802.752 497.716 804.372 496.948 805.488C496.192 806.604 495.094 807.162 493.654 807.162ZM493.654 805.884C494.662 805.884 495.406 805.458 495.886 804.606C496.378 803.754 496.624 802.428 496.624 800.628C496.624 798.828 496.384 797.514 495.904 796.686C495.424 795.846 494.674 795.426 493.654 795.426C492.646 795.426 491.896 795.846 491.404 796.686C490.924 797.526 490.684 798.84 490.684 800.628C490.684 802.428 490.924 803.754 491.404 804.606C491.896 805.458 492.646 805.884 493.654 805.884ZM504.717 807.162C503.901 807.162 503.121 807.03 502.377 806.766C501.633 806.502 501.003 806.13 500.487 805.65L501.045 804.48C502.161 805.392 503.379 805.848 504.699 805.848C505.575 805.848 506.265 805.602 506.769 805.11C507.273 804.618 507.525 803.97 507.525 803.166C507.525 802.338 507.285 801.66 506.805 801.132C506.325 800.604 505.665 800.34 504.825 800.34C503.613 800.34 502.659 800.844 501.963 801.852H500.883V794.31H508.245V795.57H502.341V800.106C503.037 799.41 503.955 799.062 505.095 799.062C505.887 799.062 506.577 799.23 507.165 799.566C507.753 799.902 508.203 800.376 508.515 800.988C508.839 801.588 509.001 802.29 509.001 803.094C509.001 803.886 508.827 804.588 508.479 805.2C508.131 805.812 507.633 806.292 506.985 806.64C506.349 806.988 505.593 807.162 504.717 807.162ZM510.974 800.088V798.252H512.81V800.088H510.974ZM510.974 807V805.164H512.81V807H510.974ZM519.336 807.162C517.884 807.162 516.78 806.604 516.024 805.488C515.268 804.372 514.89 802.758 514.89 800.646C514.89 798.522 515.268 796.908 516.024 795.804C516.78 794.7 517.884 794.148 519.336 794.148C520.8 794.148 521.904 794.7 522.648 795.804C523.404 796.896 523.782 798.504 523.782 800.628C523.782 802.752 523.398 804.372 522.63 805.488C521.874 806.604 520.776 807.162 519.336 807.162ZM519.336 805.884C520.344 805.884 521.088 805.458 521.568 804.606C522.06 803.754 522.306 802.428 522.306 800.628C522.306 798.828 522.066 797.514 521.586 796.686C521.106 795.846 520.356 795.426 519.336 795.426C518.328 795.426 517.578 795.846 517.086 796.686C516.606 797.526 516.366 798.84 516.366 800.628C516.366 802.428 516.606 803.754 517.086 804.606C517.578 805.458 518.328 805.884 519.336 805.884ZM530.129 807.162C528.677 807.162 527.573 806.604 526.817 805.488C526.061 804.372 525.683 802.758 525.683 800.646C525.683 798.522 526.061 796.908 526.817 795.804C527.573 794.7 528.677 794.148 530.129 794.148C531.593 794.148 532.697 794.7 533.441 795.804C534.197 796.896 534.575 798.504 534.575 800.628C534.575 802.752 534.191 804.372 533.423 805.488C532.667 806.604 531.569 807.162 530.129 807.162ZM530.129 805.884C531.137 805.884 531.881 805.458 532.361 804.606C532.853 803.754 533.099 802.428 533.099 800.628C533.099 798.828 532.859 797.514 532.379 796.686C531.899 795.846 531.149 795.426 530.129 795.426C529.121 795.426 528.371 795.846 527.879 796.686C527.399 797.526 527.159 798.84 527.159 800.628C527.159 802.428 527.399 803.754 527.879 804.606C528.371 805.458 529.121 805.884 530.129 805.884ZM577.906 807.162C576.454 807.162 575.35 806.604 574.594 805.488C573.838 804.372 573.46 802.758 573.46 800.646C573.46 798.522 573.838 796.908 574.594 795.804C575.35 794.7 576.454 794.148 577.906 794.148C579.37 794.148 580.474 794.7 581.218 795.804C581.974 796.896 582.352 798.504 582.352 800.628C582.352 802.752 581.968 804.372 581.2 805.488C580.444 806.604 579.346 807.162 577.906 807.162ZM577.906 805.884C578.914 805.884 579.658 805.458 580.138 804.606C580.63 803.754 580.876 802.428 580.876 800.628C580.876 798.828 580.636 797.514 580.156 796.686C579.676 795.846 578.926 795.426 577.906 795.426C576.898 795.426 576.148 795.846 575.656 796.686C575.176 797.526 574.936 798.84 574.936 800.628C574.936 802.428 575.176 803.754 575.656 804.606C576.148 805.458 576.898 805.884 577.906 805.884ZM589.131 807.162C587.631 807.162 586.473 806.622 585.657 805.542C584.853 804.45 584.451 802.926 584.451 800.97C584.451 798.774 584.901 797.088 585.801 795.912C586.701 794.736 587.961 794.148 589.581 794.148C590.229 794.148 590.877 794.286 591.525 794.562C592.185 794.838 592.725 795.21 593.145 795.678L592.605 796.83C592.161 796.374 591.675 796.032 591.147 795.804C590.631 795.576 590.097 795.462 589.545 795.462C588.369 795.462 587.463 795.9 586.827 796.776C586.203 797.652 585.891 798.954 585.891 800.682V801.564C586.119 800.772 586.539 800.154 587.151 799.71C587.775 799.266 588.507 799.044 589.347 799.044C590.091 799.044 590.751 799.218 591.327 799.566C591.903 799.902 592.353 800.37 592.677 800.97C593.001 801.57 593.163 802.26 593.163 803.04C593.163 803.844 592.989 804.558 592.641 805.182C592.305 805.794 591.831 806.28 591.219 806.64C590.619 806.988 589.923 807.162 589.131 807.162ZM589.041 805.902C589.845 805.902 590.493 805.644 590.985 805.128C591.489 804.612 591.741 803.934 591.741 803.094C591.741 802.266 591.489 801.594 590.985 801.078C590.493 800.55 589.845 800.286 589.041 800.286C588.237 800.286 587.583 800.55 587.079 801.078C586.587 801.594 586.341 802.266 586.341 803.094C586.341 803.934 586.587 804.612 587.079 805.128C587.583 805.644 588.237 805.902 589.041 805.902ZM595.226 800.088V798.252H597.062V800.088H595.226ZM595.226 807V805.164H597.062V807H595.226ZM603.588 807.162C602.136 807.162 601.032 806.604 600.276 805.488C599.52 804.372 599.142 802.758 599.142 800.646C599.142 798.522 599.52 796.908 600.276 795.804C601.032 794.7 602.136 794.148 603.588 794.148C605.052 794.148 606.156 794.7 606.9 795.804C607.656 796.896 608.034 798.504 608.034 800.628C608.034 802.752 607.65 804.372 606.882 805.488C606.126 806.604 605.028 807.162 603.588 807.162ZM603.588 805.884C604.596 805.884 605.34 805.458 605.82 804.606C606.312 803.754 606.558 802.428 606.558 800.628C606.558 798.828 606.318 797.514 605.838 796.686C605.358 795.846 604.608 795.426 603.588 795.426C602.58 795.426 601.83 795.846 601.338 796.686C600.858 797.526 600.618 798.84 600.618 800.628C600.618 802.428 600.858 803.754 601.338 804.606C601.83 805.458 602.58 805.884 603.588 805.884ZM614.38 807.162C612.928 807.162 611.824 806.604 611.068 805.488C610.312 804.372 609.934 802.758 609.934 800.646C609.934 798.522 610.312 796.908 611.068 795.804C611.824 794.7 612.928 794.148 614.38 794.148C615.844 794.148 616.948 794.7 617.692 795.804C618.448 796.896 618.826 798.504 618.826 800.628C618.826 802.752 618.442 804.372 617.674 805.488C616.918 806.604 615.82 807.162 614.38 807.162ZM614.38 805.884C615.388 805.884 616.132 805.458 616.612 804.606C617.104 803.754 617.35 802.428 617.35 800.628C617.35 798.828 617.11 797.514 616.63 796.686C616.15 795.846 615.4 795.426 614.38 795.426C613.372 795.426 612.622 795.846 612.13 796.686C611.65 797.526 611.41 798.84 611.41 800.628C611.41 802.428 611.65 803.754 612.13 804.606C612.622 805.458 613.372 805.884 614.38 805.884ZM662.158 807.162C660.706 807.162 659.602 806.604 658.846 805.488C658.09 804.372 657.712 802.758 657.712 800.646C657.712 798.522 658.09 796.908 658.846 795.804C659.602 794.7 660.706 794.148 662.158 794.148C663.622 794.148 664.726 794.7 665.47 795.804C666.226 796.896 666.604 798.504 666.604 800.628C666.604 802.752 666.22 804.372 665.452 805.488C664.696 806.604 663.598 807.162 662.158 807.162ZM662.158 805.884C663.166 805.884 663.91 805.458 664.39 804.606C664.882 803.754 665.128 802.428 665.128 800.628C665.128 798.828 664.888 797.514 664.408 796.686C663.928 795.846 663.178 795.426 662.158 795.426C661.15 795.426 660.4 795.846 659.908 796.686C659.428 797.526 659.188 798.84 659.188 800.628C659.188 802.428 659.428 803.754 659.908 804.606C660.4 805.458 661.15 805.884 662.158 805.884ZM669.567 807L675.471 795.588H668.757V794.31H677.145V795.426L671.205 807H669.567ZM679.478 800.088V798.252H681.314V800.088H679.478ZM679.478 807V805.164H681.314V807H679.478ZM687.839 807.162C686.387 807.162 685.283 806.604 684.527 805.488C683.771 804.372 683.393 802.758 683.393 800.646C683.393 798.522 683.771 796.908 684.527 795.804C685.283 794.7 686.387 794.148 687.839 794.148C689.303 794.148 690.407 794.7 691.151 795.804C691.907 796.896 692.285 798.504 692.285 800.628C692.285 802.752 691.901 804.372 691.133 805.488C690.377 806.604 689.279 807.162 687.839 807.162ZM687.839 805.884C688.847 805.884 689.591 805.458 690.071 804.606C690.563 803.754 690.809 802.428 690.809 800.628C690.809 798.828 690.569 797.514 690.089 796.686C689.609 795.846 688.859 795.426 687.839 795.426C686.831 795.426 686.081 795.846 685.589 796.686C685.109 797.526 684.869 798.84 684.869 800.628C684.869 802.428 685.109 803.754 685.589 804.606C686.081 805.458 686.831 805.884 687.839 805.884ZM698.632 807.162C697.18 807.162 696.076 806.604 695.32 805.488C694.564 804.372 694.186 802.758 694.186 800.646C694.186 798.522 694.564 796.908 695.32 795.804C696.076 794.7 697.18 794.148 698.632 794.148C700.096 794.148 701.2 794.7 701.944 795.804C702.7 796.896 703.078 798.504 703.078 800.628C703.078 802.752 702.694 804.372 701.926 805.488C701.17 806.604 700.072 807.162 698.632 807.162ZM698.632 805.884C699.64 805.884 700.384 805.458 700.864 804.606C701.356 803.754 701.602 802.428 701.602 800.628C701.602 798.828 701.362 797.514 700.882 796.686C700.402 795.846 699.652 795.426 698.632 795.426C697.624 795.426 696.874 795.846 696.382 796.686C695.902 797.526 695.662 798.84 695.662 800.628C695.662 802.428 695.902 803.754 696.382 804.606C696.874 805.458 697.624 805.884 698.632 805.884ZM746.41 807.162C744.958 807.162 743.854 806.604 743.098 805.488C742.342 804.372 741.964 802.758 741.964 800.646C741.964 798.522 742.342 796.908 743.098 795.804C743.854 794.7 744.958 794.148 746.41 794.148C747.874 794.148 748.978 794.7 749.722 795.804C750.478 796.896 750.856 798.504 750.856 800.628C750.856 802.752 750.472 804.372 749.704 805.488C748.948 806.604 747.85 807.162 746.41 807.162ZM746.41 805.884C747.418 805.884 748.162 805.458 748.642 804.606C749.134 803.754 749.38 802.428 749.38 800.628C749.38 798.828 749.14 797.514 748.66 796.686C748.18 795.846 747.43 795.426 746.41 795.426C745.402 795.426 744.652 795.846 744.16 796.686C743.68 797.526 743.44 798.84 743.44 800.628C743.44 802.428 743.68 803.754 744.16 804.606C744.652 805.458 745.402 805.884 746.41 805.884ZM757.203 807.162C755.775 807.162 754.665 806.856 753.873 806.244C753.081 805.62 752.685 804.75 752.685 803.634C752.685 802.854 752.895 802.188 753.315 801.636C753.747 801.084 754.317 800.706 755.025 800.502C754.389 800.262 753.891 799.878 753.531 799.35C753.171 798.822 752.991 798.216 752.991 797.532C752.991 796.464 753.369 795.636 754.125 795.048C754.893 794.448 755.919 794.148 757.203 794.148C758.487 794.148 759.513 794.448 760.281 795.048C761.049 795.636 761.433 796.464 761.433 797.532C761.433 798.216 761.247 798.828 760.875 799.368C760.515 799.896 760.023 800.274 759.399 800.502C760.107 800.706 760.671 801.084 761.091 801.636C761.511 802.188 761.721 802.854 761.721 803.634C761.721 804.75 761.325 805.62 760.533 806.244C759.741 806.856 758.631 807.162 757.203 807.162ZM757.203 799.962C758.079 799.962 758.763 799.758 759.255 799.35C759.759 798.93 760.011 798.366 760.011 797.658C760.011 796.938 759.759 796.38 759.255 795.984C758.763 795.576 758.079 795.372 757.203 795.372C756.327 795.372 755.643 795.576 755.151 795.984C754.659 796.38 754.413 796.938 754.413 797.658C754.413 798.366 754.659 798.93 755.151 799.35C755.643 799.758 756.327 799.962 757.203 799.962ZM757.203 805.938C759.267 805.938 760.299 805.14 760.299 803.544C760.299 801.972 759.267 801.186 757.203 801.186C755.139 801.186 754.107 801.972 754.107 803.544C754.107 805.14 755.139 805.938 757.203 805.938ZM763.73 800.088V798.252H765.566V800.088H763.73ZM763.73 807V805.164H765.566V807H763.73ZM772.091 807.162C770.639 807.162 769.535 806.604 768.779 805.488C768.023 804.372 767.645 802.758 767.645 800.646C767.645 798.522 768.023 796.908 768.779 795.804C769.535 794.7 770.639 794.148 772.091 794.148C773.555 794.148 774.659 794.7 775.403 795.804C776.159 796.896 776.537 798.504 776.537 800.628C776.537 802.752 776.153 804.372 775.385 805.488C774.629 806.604 773.531 807.162 772.091 807.162ZM772.091 805.884C773.099 805.884 773.843 805.458 774.323 804.606C774.815 803.754 775.061 802.428 775.061 800.628C775.061 798.828 774.821 797.514 774.341 796.686C773.861 795.846 773.111 795.426 772.091 795.426C771.083 795.426 770.333 795.846 769.841 796.686C769.361 797.526 769.121 798.84 769.121 800.628C769.121 802.428 769.361 803.754 769.841 804.606C770.333 805.458 771.083 805.884 772.091 805.884ZM782.884 807.162C781.432 807.162 780.328 806.604 779.572 805.488C778.816 804.372 778.438 802.758 778.438 800.646C778.438 798.522 778.816 796.908 779.572 795.804C780.328 794.7 781.432 794.148 782.884 794.148C784.348 794.148 785.452 794.7 786.196 795.804C786.952 796.896 787.33 798.504 787.33 800.628C787.33 802.752 786.946 804.372 786.178 805.488C785.422 806.604 784.324 807.162 782.884 807.162ZM782.884 805.884C783.892 805.884 784.636 805.458 785.116 804.606C785.608 803.754 785.854 802.428 785.854 800.628C785.854 798.828 785.614 797.514 785.134 796.686C784.654 795.846 783.904 795.426 782.884 795.426C781.876 795.426 781.126 795.846 780.634 796.686C780.154 797.526 779.914 798.84 779.914 800.628C779.914 802.428 780.154 803.754 780.634 804.606C781.126 805.458 781.876 805.884 782.884 805.884ZM835.285 807.162C833.833 807.162 832.729 806.604 831.973 805.488C831.217 804.372 830.839 802.758 830.839 800.646C830.839 798.522 831.217 796.908 831.973 795.804C832.729 794.7 833.833 794.148 835.285 794.148C836.749 794.148 837.853 794.7 838.597 795.804C839.353 796.896 839.731 798.504 839.731 800.628C839.731 802.752 839.347 804.372 838.579 805.488C837.823 806.604 836.725 807.162 835.285 807.162ZM835.285 805.884C836.293 805.884 837.037 805.458 837.517 804.606C838.009 803.754 838.255 802.428 838.255 800.628C838.255 798.828 838.015 797.514 837.535 796.686C837.055 795.846 836.305 795.426 835.285 795.426C834.277 795.426 833.527 795.846 833.035 796.686C832.555 797.526 832.315 798.84 832.315 800.628C832.315 802.428 832.555 803.754 833.035 804.606C833.527 805.458 834.277 805.884 835.285 805.884ZM845.214 807.162C844.566 807.162 843.912 807.024 843.252 806.748C842.592 806.472 842.052 806.1 841.632 805.632L842.19 804.462C842.622 804.93 843.096 805.278 843.612 805.506C844.14 805.734 844.68 805.848 845.232 805.848C846.408 805.848 847.314 805.41 847.95 804.534C848.586 803.658 848.904 802.356 848.904 800.628V799.728C848.664 800.52 848.232 801.144 847.608 801.6C846.996 802.044 846.27 802.266 845.43 802.266C844.686 802.266 844.026 802.098 843.45 801.762C842.874 801.414 842.424 800.94 842.1 800.34C841.776 799.74 841.614 799.05 841.614 798.27C841.614 797.466 841.782 796.758 842.118 796.146C842.466 795.522 842.94 795.036 843.54 794.688C844.152 794.328 844.854 794.148 845.646 794.148C847.146 794.148 848.298 794.694 849.102 795.786C849.918 796.866 850.326 798.384 850.326 800.34C850.326 802.524 849.876 804.21 848.976 805.398C848.076 806.574 846.822 807.162 845.214 807.162ZM845.736 801.024C846.54 801.024 847.194 800.766 847.698 800.25C848.202 799.722 848.454 799.044 848.454 798.216C848.454 797.376 848.202 796.698 847.698 796.182C847.194 795.654 846.54 795.39 845.736 795.39C844.944 795.39 844.296 795.654 843.792 796.182C843.288 796.698 843.036 797.376 843.036 798.216C843.036 799.044 843.288 799.722 843.792 800.25C844.296 800.766 844.944 801.024 845.736 801.024ZM852.605 800.088V798.252H854.441V800.088H852.605ZM852.605 807V805.164H854.441V807H852.605ZM860.966 807.162C859.514 807.162 858.41 806.604 857.654 805.488C856.898 804.372 856.52 802.758 856.52 800.646C856.52 798.522 856.898 796.908 857.654 795.804C858.41 794.7 859.514 794.148 860.966 794.148C862.43 794.148 863.534 794.7 864.278 795.804C865.034 796.896 865.412 798.504 865.412 800.628C865.412 802.752 865.028 804.372 864.26 805.488C863.504 806.604 862.406 807.162 860.966 807.162ZM860.966 805.884C861.974 805.884 862.718 805.458 863.198 804.606C863.69 803.754 863.936 802.428 863.936 800.628C863.936 798.828 863.696 797.514 863.216 796.686C862.736 795.846 861.986 795.426 860.966 795.426C859.958 795.426 859.208 795.846 858.716 796.686C858.236 797.526 857.996 798.84 857.996 800.628C857.996 802.428 858.236 803.754 858.716 804.606C859.208 805.458 859.958 805.884 860.966 805.884ZM871.759 807.162C870.307 807.162 869.203 806.604 868.447 805.488C867.691 804.372 867.313 802.758 867.313 800.646C867.313 798.522 867.691 796.908 868.447 795.804C869.203 794.7 870.307 794.148 871.759 794.148C873.223 794.148 874.327 794.7 875.071 795.804C875.827 796.896 876.205 798.504 876.205 800.628C876.205 802.752 875.821 804.372 875.053 805.488C874.297 806.604 873.199 807.162 871.759 807.162ZM871.759 805.884C872.767 805.884 873.511 805.458 873.991 804.606C874.483 803.754 874.729 802.428 874.729 800.628C874.729 798.828 874.489 797.514 874.009 796.686C873.529 795.846 872.779 795.426 871.759 795.426C870.751 795.426 870.001 795.846 869.509 796.686C869.029 797.526 868.789 798.84 868.789 800.628C868.789 802.428 869.029 803.754 869.509 804.606C870.001 805.458 870.751 805.884 871.759 805.884ZM916.369 807V805.74H919.267V796.092L916.981 797.532L916.351 796.434L919.681 794.31H920.743V805.74H923.461V807H916.369ZM930.33 807.162C928.878 807.162 927.774 806.604 927.018 805.488C926.262 804.372 925.884 802.758 925.884 800.646C925.884 798.522 926.262 796.908 927.018 795.804C927.774 794.7 928.878 794.148 930.33 794.148C931.794 794.148 932.898 794.7 933.642 795.804C934.398 796.896 934.776 798.504 934.776 800.628C934.776 802.752 934.392 804.372 933.624 805.488C932.868 806.604 931.77 807.162 930.33 807.162ZM930.33 805.884C931.338 805.884 932.082 805.458 932.562 804.606C933.054 803.754 933.3 802.428 933.3 800.628C933.3 798.828 933.06 797.514 932.58 796.686C932.1 795.846 931.35 795.426 930.33 795.426C929.322 795.426 928.572 795.846 928.08 796.686C927.6 797.526 927.36 798.84 927.36 800.628C927.36 802.428 927.6 803.754 928.08 804.606C928.572 805.458 929.322 805.884 930.33 805.884ZM936.857 800.088V798.252H938.693V800.088H936.857ZM936.857 807V805.164H938.693V807H936.857ZM945.218 807.162C943.766 807.162 942.662 806.604 941.906 805.488C941.15 804.372 940.772 802.758 940.772 800.646C940.772 798.522 941.15 796.908 941.906 795.804C942.662 794.7 943.766 794.148 945.218 794.148C946.682 794.148 947.786 794.7 948.53 795.804C949.286 796.896 949.664 798.504 949.664 800.628C949.664 802.752 949.28 804.372 948.512 805.488C947.756 806.604 946.658 807.162 945.218 807.162ZM945.218 805.884C946.226 805.884 946.97 805.458 947.45 804.606C947.942 803.754 948.188 802.428 948.188 800.628C948.188 798.828 947.948 797.514 947.468 796.686C946.988 795.846 946.238 795.426 945.218 795.426C944.21 795.426 943.46 795.846 942.968 796.686C942.488 797.526 942.248 798.84 942.248 800.628C942.248 802.428 942.488 803.754 942.968 804.606C943.46 805.458 944.21 805.884 945.218 805.884ZM956.011 807.162C954.559 807.162 953.455 806.604 952.699 805.488C951.943 804.372 951.565 802.758 951.565 800.646C951.565 798.522 951.943 796.908 952.699 795.804C953.455 794.7 954.559 794.148 956.011 794.148C957.475 794.148 958.579 794.7 959.323 795.804C960.079 796.896 960.457 798.504 960.457 800.628C960.457 802.752 960.073 804.372 959.305 805.488C958.549 806.604 957.451 807.162 956.011 807.162ZM956.011 805.884C957.019 805.884 957.763 805.458 958.243 804.606C958.735 803.754 958.981 802.428 958.981 800.628C958.981 798.828 958.741 797.514 958.261 796.686C957.781 795.846 957.031 795.426 956.011 795.426C955.003 795.426 954.253 795.846 953.761 796.686C953.281 797.526 953.041 798.84 953.041 800.628C953.041 802.428 953.281 803.754 953.761 804.606C954.253 805.458 955.003 805.884 956.011 805.884ZM995.998 807V805.74H998.896V796.092L996.61 797.532L995.98 796.434L999.31 794.31H1000.37V805.74H1003.09V807H995.998ZM1006.79 807V805.74H1009.69V796.092L1007.4 797.532L1006.77 796.434L1010.1 794.31H1011.16V805.74H1013.88V807H1006.79ZM1016.49 800.088V798.252H1018.32V800.088H1016.49ZM1016.49 807V805.164H1018.32V807H1016.49ZM1024.85 807.162C1023.4 807.162 1022.29 806.604 1021.54 805.488C1020.78 804.372 1020.4 802.758 1020.4 800.646C1020.4 798.522 1020.78 796.908 1021.54 795.804C1022.29 794.7 1023.4 794.148 1024.85 794.148C1026.31 794.148 1027.42 794.7 1028.16 795.804C1028.92 796.896 1029.29 798.504 1029.29 800.628C1029.29 802.752 1028.91 804.372 1028.14 805.488C1027.39 806.604 1026.29 807.162 1024.85 807.162ZM1024.85 805.884C1025.86 805.884 1026.6 805.458 1027.08 804.606C1027.57 803.754 1027.82 802.428 1027.82 800.628C1027.82 798.828 1027.58 797.514 1027.1 796.686C1026.62 795.846 1025.87 795.426 1024.85 795.426C1023.84 795.426 1023.09 795.846 1022.6 796.686C1022.12 797.526 1021.88 798.84 1021.88 800.628C1021.88 802.428 1022.12 803.754 1022.6 804.606C1023.09 805.458 1023.84 805.884 1024.85 805.884ZM1035.64 807.162C1034.19 807.162 1033.08 806.604 1032.33 805.488C1031.57 804.372 1031.19 802.758 1031.19 800.646C1031.19 798.522 1031.57 796.908 1032.33 795.804C1033.08 794.7 1034.19 794.148 1035.64 794.148C1037.1 794.148 1038.21 794.7 1038.95 795.804C1039.71 796.896 1040.09 798.504 1040.09 800.628C1040.09 802.752 1039.7 804.372 1038.93 805.488C1038.18 806.604 1037.08 807.162 1035.64 807.162ZM1035.64 805.884C1036.65 805.884 1037.39 805.458 1037.87 804.606C1038.36 803.754 1038.61 802.428 1038.61 800.628C1038.61 798.828 1038.37 797.514 1037.89 796.686C1037.41 795.846 1036.66 795.426 1035.64 795.426C1034.63 795.426 1033.88 795.846 1033.39 796.686C1032.91 797.526 1032.67 798.84 1032.67 800.628C1032.67 802.428 1032.91 803.754 1033.39 804.606C1033.88 805.458 1034.63 805.884 1035.64 805.884ZM1080.25 807V805.74H1083.15V796.092L1080.86 797.532L1080.23 796.434L1083.56 794.31H1084.62V805.74H1087.34V807H1080.25ZM1090.43 807V805.884L1094.77 801.204C1095.38 800.532 1095.82 799.92 1096.08 799.368C1096.36 798.816 1096.5 798.252 1096.5 797.676C1096.5 796.2 1095.64 795.462 1093.92 795.462C1092.64 795.462 1091.5 795.942 1090.52 796.902L1089.96 795.75C1090.43 795.27 1091.02 794.886 1091.74 794.598C1092.48 794.298 1093.24 794.148 1094.05 794.148C1095.32 794.148 1096.29 794.448 1096.96 795.048C1097.65 795.636 1097.99 796.476 1097.99 797.568C1097.99 798.324 1097.8 799.068 1097.43 799.8C1097.06 800.52 1096.49 801.288 1095.72 802.104L1092.32 805.74H1098.51V807H1090.43ZM1100.74 800.088V798.252H1102.57V800.088H1100.74ZM1100.74 807V805.164H1102.57V807H1100.74ZM1109.1 807.162C1107.65 807.162 1106.54 806.604 1105.79 805.488C1105.03 804.372 1104.65 802.758 1104.65 800.646C1104.65 798.522 1105.03 796.908 1105.79 795.804C1106.54 794.7 1107.65 794.148 1109.1 794.148C1110.56 794.148 1111.67 794.7 1112.41 795.804C1113.17 796.896 1113.55 798.504 1113.55 800.628C1113.55 802.752 1113.16 804.372 1112.39 805.488C1111.64 806.604 1110.54 807.162 1109.1 807.162ZM1109.1 805.884C1110.11 805.884 1110.85 805.458 1111.33 804.606C1111.82 803.754 1112.07 802.428 1112.07 800.628C1112.07 798.828 1111.83 797.514 1111.35 796.686C1110.87 795.846 1110.12 795.426 1109.1 795.426C1108.09 795.426 1107.34 795.846 1106.85 796.686C1106.37 797.526 1106.13 798.84 1106.13 800.628C1106.13 802.428 1106.37 803.754 1106.85 804.606C1107.34 805.458 1108.09 805.884 1109.1 805.884ZM1119.89 807.162C1118.44 807.162 1117.34 806.604 1116.58 805.488C1115.82 804.372 1115.45 802.758 1115.45 800.646C1115.45 798.522 1115.82 796.908 1116.58 795.804C1117.34 794.7 1118.44 794.148 1119.89 794.148C1121.36 794.148 1122.46 794.7 1123.2 795.804C1123.96 796.896 1124.34 798.504 1124.34 800.628C1124.34 802.752 1123.95 804.372 1123.19 805.488C1122.43 806.604 1121.33 807.162 1119.89 807.162ZM1119.89 805.884C1120.9 805.884 1121.64 805.458 1122.12 804.606C1122.62 803.754 1122.86 802.428 1122.86 800.628C1122.86 798.828 1122.62 797.514 1122.14 796.686C1121.66 795.846 1120.91 795.426 1119.89 795.426C1118.88 795.426 1118.13 795.846 1117.64 796.686C1117.16 797.526 1116.92 798.84 1116.92 800.628C1116.92 802.428 1117.16 803.754 1117.64 804.606C1118.13 805.458 1118.88 805.884 1119.89 805.884ZM1169.12 807V805.74H1172.02V796.092L1169.74 797.532L1169.11 796.434L1172.44 794.31H1173.5V805.74H1176.22V807H1169.12ZM1182.94 807.162C1182.1 807.162 1181.3 807.036 1180.55 806.784C1179.79 806.52 1179.16 806.142 1178.64 805.65L1179.18 804.48C1179.77 804.96 1180.36 805.308 1180.96 805.524C1181.56 805.74 1182.21 805.848 1182.91 805.848C1183.82 805.848 1184.51 805.65 1184.99 805.254C1185.49 804.846 1185.73 804.252 1185.73 803.472C1185.73 802.728 1185.49 802.164 1184.99 801.78C1184.5 801.396 1183.79 801.204 1182.85 801.204H1180.98V799.926H1182.73C1183.54 799.926 1184.18 799.716 1184.65 799.296C1185.13 798.864 1185.37 798.276 1185.37 797.532C1185.37 796.872 1185.15 796.362 1184.71 796.002C1184.27 795.642 1183.66 795.462 1182.85 795.462C1181.53 795.462 1180.38 795.942 1179.4 796.902L1178.86 795.75C1179.32 795.246 1179.92 794.856 1180.64 794.58C1181.37 794.292 1182.14 794.148 1182.94 794.148C1184.17 794.148 1185.12 794.436 1185.8 795.012C1186.5 795.588 1186.85 796.386 1186.85 797.406C1186.85 798.114 1186.67 798.738 1186.31 799.278C1185.95 799.806 1185.45 800.19 1184.81 800.43C1185.57 800.634 1186.16 801.012 1186.58 801.564C1187 802.104 1187.21 802.776 1187.21 803.58C1187.21 804.672 1186.82 805.542 1186.06 806.19C1185.3 806.838 1184.26 807.162 1182.94 807.162ZM1189.61 800.088V798.252H1191.45V800.088H1189.61ZM1189.61 807V805.164H1191.45V807H1189.61ZM1197.97 807.162C1196.52 807.162 1195.42 806.604 1194.66 805.488C1193.91 804.372 1193.53 802.758 1193.53 800.646C1193.53 798.522 1193.91 796.908 1194.66 795.804C1195.42 794.7 1196.52 794.148 1197.97 794.148C1199.44 794.148 1200.54 794.7 1201.29 795.804C1202.04 796.896 1202.42 798.504 1202.42 800.628C1202.42 802.752 1202.04 804.372 1201.27 805.488C1200.51 806.604 1199.41 807.162 1197.97 807.162ZM1197.97 805.884C1198.98 805.884 1199.73 805.458 1200.21 804.606C1200.7 803.754 1200.94 802.428 1200.94 800.628C1200.94 798.828 1200.7 797.514 1200.22 796.686C1199.74 795.846 1198.99 795.426 1197.97 795.426C1196.97 795.426 1196.22 795.846 1195.72 796.686C1195.24 797.526 1195 798.84 1195 800.628C1195 802.428 1195.24 803.754 1195.72 804.606C1196.22 805.458 1196.97 805.884 1197.97 805.884ZM1208.77 807.162C1207.32 807.162 1206.21 806.604 1205.46 805.488C1204.7 804.372 1204.32 802.758 1204.32 800.646C1204.32 798.522 1204.7 796.908 1205.46 795.804C1206.21 794.7 1207.32 794.148 1208.77 794.148C1210.23 794.148 1211.34 794.7 1212.08 795.804C1212.84 796.896 1213.21 798.504 1213.21 800.628C1213.21 802.752 1212.83 804.372 1212.06 805.488C1211.31 806.604 1210.21 807.162 1208.77 807.162ZM1208.77 805.884C1209.78 805.884 1210.52 805.458 1211 804.606C1211.49 803.754 1211.74 802.428 1211.74 800.628C1211.74 798.828 1211.5 797.514 1211.02 796.686C1210.54 795.846 1209.79 795.426 1208.77 795.426C1207.76 795.426 1207.01 795.846 1206.52 796.686C1206.04 797.526 1205.8 798.84 1205.8 800.628C1205.8 802.428 1206.04 803.754 1206.52 804.606C1207.01 805.458 1207.76 805.884 1208.77 805.884Z" fill="#5E5E63"/>
<path d="M57.304 71.32L59.56 66.352L54.712 55.216H58.528L61.48 62.704L64.528 55.216H68.128L61 71.32H57.304ZM67.5569 67L75.3329 50.08H78.3329L86.1089 67H82.3649L80.7809 63.328H72.8849L71.3249 67H67.5569ZM76.7969 54.04L74.1329 60.424H79.5569L76.8449 54.04H76.7969ZM84.9692 67L89.9373 60.928L85.2812 55.216H89.5053L92.0013 58.456L94.4973 55.216H98.7213L94.0653 60.928L99.0573 67H94.8093L92.0013 63.448L89.1933 67H84.9692ZM99.9355 52.936V49.552H103.848V52.936H99.9355ZM100.08 67V55.216H103.704V67H100.08ZM111.013 67.264C109.973 67.264 109.005 67.144 108.109 66.904C107.213 66.664 106.469 66.336 105.877 65.92L106.741 63.568C107.333 63.936 108.005 64.232 108.757 64.456C109.525 64.664 110.285 64.768 111.037 64.768C111.709 64.768 112.205 64.664 112.525 64.456C112.845 64.232 113.005 63.944 113.005 63.592C113.005 63.032 112.597 62.68 111.781 62.536L109.261 62.08C108.253 61.904 107.485 61.544 106.957 61C106.429 60.456 106.165 59.744 106.165 58.864C106.165 58.064 106.389 57.376 106.837 56.8C107.285 56.224 107.901 55.776 108.685 55.456C109.469 55.136 110.373 54.976 111.397 54.976C112.245 54.976 113.069 55.088 113.869 55.312C114.669 55.52 115.357 55.856 115.933 56.32L115.021 58.648C114.541 58.296 113.965 58.008 113.293 57.784C112.637 57.56 112.021 57.448 111.445 57.448C110.725 57.448 110.205 57.568 109.885 57.808C109.565 58.032 109.405 58.32 109.405 58.672C109.405 59.232 109.781 59.584 110.533 59.728L113.053 60.184C114.093 60.36 114.885 60.712 115.429 61.24C115.973 61.752 116.245 62.456 116.245 63.352C116.245 64.584 115.765 65.544 114.805 66.232C113.845 66.92 112.581 67.264 111.013 67.264ZM130.802 67L123.194 50.08H127.178L132.41 62.224L137.642 50.08H141.458L133.85 67H130.802ZM142.815 67V64.24L148.119 58.672C148.791 57.936 149.271 57.296 149.559 56.752C149.863 56.192 150.015 55.632 150.015 55.072C150.015 53.632 149.127 52.912 147.351 52.912C146.663 52.912 145.975 53.048 145.287 53.32C144.599 53.576 143.927 53.976 143.271 54.52L142.071 51.784C142.775 51.176 143.639 50.696 144.663 50.344C145.703 49.992 146.767 49.816 147.855 49.816C149.743 49.816 151.183 50.24 152.175 51.088C153.183 51.92 153.687 53.112 153.687 54.664C153.687 55.688 153.447 56.672 152.967 57.616C152.503 58.544 151.735 59.552 150.663 60.64L147.399 63.952H154.311V67H142.815ZM157.614 68.824L154.95 68.032L161.19 48.64L163.854 49.432L157.614 68.824ZM169.884 67V59.368L163.356 50.08H167.676L171.804 56.032L175.932 50.08H180.084L173.604 59.392V67H169.884ZM177.502 67L185.278 50.08H188.278L196.054 67H192.31L190.726 63.328H182.83L181.27 67H177.502ZM186.742 54.04L184.078 60.424H189.502L186.79 54.04H186.742ZM195.148 67L201.604 58.432L195.34 50.08H199.66L203.74 55.72L207.796 50.08H212.14L205.852 58.432L212.308 67H207.964L203.716 61.168L199.516 67H195.148ZM213.642 67V50.08H217.362V67H213.642ZM226.791 67.264C225.463 67.264 224.207 67.096 223.023 66.76C221.855 66.424 220.879 65.968 220.095 65.392L221.175 62.464C221.927 62.992 222.783 63.408 223.743 63.712C224.719 64.016 225.735 64.168 226.791 64.168C227.943 64.168 228.767 63.992 229.263 63.64C229.775 63.272 230.031 62.816 230.031 62.272C230.031 61.808 229.855 61.44 229.503 61.168C229.151 60.896 228.535 60.664 227.655 60.472L224.943 59.896C221.919 59.256 220.407 57.688 220.407 55.192C220.407 54.12 220.695 53.184 221.271 52.384C221.847 51.568 222.647 50.936 223.671 50.488C224.711 50.04 225.911 49.816 227.271 49.816C228.439 49.816 229.535 49.984 230.559 50.32C231.583 50.656 232.431 51.128 233.103 51.736L232.023 54.472C230.711 53.432 229.119 52.912 227.247 52.912C226.239 52.912 225.455 53.112 224.895 53.512C224.351 53.896 224.079 54.4 224.079 55.024C224.079 55.488 224.247 55.864 224.583 56.152C224.919 56.44 225.503 56.672 226.335 56.848L229.047 57.424C232.151 58.096 233.703 59.616 233.703 61.984C233.703 63.04 233.415 63.968 232.839 64.768C232.279 65.552 231.479 66.168 230.439 66.616C229.415 67.048 228.199 67.264 226.791 67.264ZM242.27 67V63.16H246.158V67H242.27ZM256.408 67V63.952H260.2V54.232L257.296 55.936L255.88 53.224L261.28 50.08H263.92V63.952H267.472V67H256.408ZM275.598 67.264C273.55 67.264 271.982 66.504 270.894 64.984C269.822 63.464 269.286 61.296 269.286 58.48C269.286 55.664 269.822 53.52 270.894 52.048C271.982 50.56 273.55 49.816 275.598 49.816C277.646 49.816 279.206 50.56 280.278 52.048C281.366 53.52 281.91 55.664 281.91 58.48C281.91 61.296 281.366 63.464 280.278 64.984C279.206 66.504 277.646 67.264 275.598 67.264ZM275.598 64.24C276.526 64.24 277.214 63.784 277.662 62.872C278.11 61.944 278.334 60.48 278.334 58.48C278.334 56.48 278.11 55.04 277.662 54.16C277.214 53.28 276.526 52.84 275.598 52.84C274.67 52.84 273.982 53.28 273.534 54.16C273.086 55.04 272.862 56.48 272.862 58.48C272.862 60.48 273.086 61.944 273.534 62.872C273.982 63.784 274.67 64.24 275.598 64.24Z" fill="white"/>
<path d="M305.196 67V63.376H297.396V61.888L305.532 50.08H307.188V61.696H309.708V63.376H307.188V67H305.196ZM305.196 61.696V53.32L299.436 61.696H305.196ZM318.099 67.216C317.011 67.216 315.971 67.04 314.979 66.688C313.987 66.336 313.147 65.84 312.459 65.2L313.203 63.64C314.691 64.856 316.315 65.464 318.075 65.464C319.243 65.464 320.163 65.136 320.835 64.48C321.507 63.824 321.843 62.96 321.843 61.888C321.843 60.784 321.523 59.88 320.883 59.176C320.243 58.472 319.363 58.12 318.243 58.12C316.627 58.12 315.355 58.792 314.427 60.136H312.987V50.08H322.803V51.76H314.931V57.808C315.859 56.88 317.083 56.416 318.603 56.416C319.659 56.416 320.579 56.64 321.363 57.088C322.147 57.536 322.747 58.168 323.163 58.984C323.595 59.784 323.811 60.72 323.811 61.792C323.811 62.848 323.579 63.784 323.115 64.6C322.651 65.416 321.987 66.056 321.123 66.52C320.275 66.984 319.267 67.216 318.099 67.216ZM333.978 67V63.376H326.178V61.888L334.314 50.08H335.97V61.696H338.49V63.376H335.97V67H333.978ZM333.978 61.696V53.32L328.218 61.696H333.978ZM347.096 67.216C345.096 67.216 343.552 66.496 342.464 65.056C341.392 63.6 340.856 61.568 340.856 58.96C340.856 56.032 341.456 53.784 342.656 52.216C343.856 50.648 345.536 49.864 347.696 49.864C348.56 49.864 349.424 50.048 350.288 50.416C351.168 50.784 351.888 51.28 352.448 51.904L351.728 53.44C351.136 52.832 350.488 52.376 349.784 52.072C349.096 51.768 348.384 51.616 347.648 51.616C346.08 51.616 344.872 52.2 344.024 53.368C343.192 54.536 342.776 56.272 342.776 58.576V59.752C343.08 58.696 343.64 57.872 344.456 57.28C345.288 56.688 346.264 56.392 347.384 56.392C348.376 56.392 349.256 56.624 350.024 57.088C350.792 57.536 351.392 58.16 351.824 58.96C352.256 59.76 352.472 60.68 352.472 61.72C352.472 62.792 352.24 63.744 351.776 64.576C351.328 65.392 350.696 66.04 349.88 66.52C349.08 66.984 348.152 67.216 347.096 67.216ZM346.976 65.536C348.048 65.536 348.912 65.192 349.568 64.504C350.24 63.816 350.576 62.912 350.576 61.792C350.576 60.688 350.24 59.792 349.568 59.104C348.912 58.4 348.048 58.048 346.976 58.048C345.904 58.048 345.032 58.4 344.36 59.104C343.704 59.792 343.376 60.688 343.376 61.792C343.376 62.912 343.704 63.816 344.36 64.504C345.032 65.192 345.904 65.536 346.976 65.536ZM362.759 67V63.376H354.959V61.888L363.095 50.08H364.751V61.696H367.271V63.376H364.751V67H362.759ZM362.759 61.696V53.32L356.999 61.696H362.759ZM375.662 67.216C374.574 67.216 373.534 67.04 372.542 66.688C371.55 66.336 370.71 65.84 370.022 65.2L370.766 63.64C372.254 64.856 373.878 65.464 375.638 65.464C376.806 65.464 377.726 65.136 378.398 64.48C379.07 63.824 379.406 62.96 379.406 61.888C379.406 60.784 379.086 59.88 378.446 59.176C377.806 58.472 376.926 58.12 375.806 58.12C374.19 58.12 372.918 58.792 371.99 60.136H370.55V50.08H380.366V51.76H372.494V57.808C373.422 56.88 374.646 56.416 376.166 56.416C377.222 56.416 378.142 56.64 378.926 57.088C379.71 57.536 380.31 58.168 380.726 58.984C381.158 59.784 381.374 60.72 381.374 61.792C381.374 62.848 381.142 63.784 380.678 64.6C380.214 65.416 379.55 66.056 378.686 66.52C377.838 66.984 376.83 67.216 375.662 67.216ZM395.088 66.04V60.856H390V59.368H395.088V54.328H396.624V59.368H401.712V60.856H396.624V66.04H395.088ZM406.023 67V65.32H409.887V52.456L406.839 54.376L405.999 52.912L410.439 50.08H411.855V65.32H415.479V67H406.023ZM424.638 67.216C422.734 67.216 421.254 66.808 420.198 65.992C419.142 65.16 418.614 64 418.614 62.512C418.614 61.472 418.894 60.584 419.454 59.848C420.03 59.112 420.79 58.608 421.734 58.336C420.886 58.016 420.222 57.504 419.742 56.8C419.262 56.096 419.021 55.288 419.021 54.376C419.021 52.952 419.526 51.848 420.534 51.064C421.558 50.264 422.926 49.864 424.638 49.864C426.35 49.864 427.718 50.264 428.742 51.064C429.766 51.848 430.278 52.952 430.278 54.376C430.278 55.288 430.03 56.104 429.534 56.824C429.054 57.528 428.398 58.032 427.566 58.336C428.51 58.608 429.262 59.112 429.822 59.848C430.382 60.584 430.661 61.472 430.661 62.512C430.661 64 430.134 65.16 429.078 65.992C428.022 66.808 426.542 67.216 424.638 67.216ZM424.638 57.616C425.806 57.616 426.718 57.344 427.374 56.8C428.046 56.24 428.382 55.488 428.382 54.544C428.382 53.584 428.046 52.84 427.374 52.312C426.718 51.768 425.806 51.496 424.638 51.496C423.47 51.496 422.558 51.768 421.902 52.312C421.246 52.84 420.918 53.584 420.918 54.544C420.918 55.488 421.246 56.24 421.902 56.8C422.558 57.344 423.47 57.616 424.638 57.616ZM424.638 65.584C427.39 65.584 428.766 64.52 428.766 62.392C428.766 60.296 427.39 59.248 424.638 59.248C421.886 59.248 420.51 60.296 420.51 62.392C420.51 64.52 421.886 65.584 424.638 65.584ZM433.34 67V64.552H435.788V67H433.34ZM444.489 67.216C442.585 67.216 441.105 66.808 440.049 65.992C438.993 65.16 438.465 64 438.465 62.512C438.465 61.472 438.745 60.584 439.305 59.848C439.881 59.112 440.641 58.608 441.585 58.336C440.737 58.016 440.073 57.504 439.593 56.8C439.113 56.096 438.873 55.288 438.873 54.376C438.873 52.952 439.377 51.848 440.385 51.064C441.409 50.264 442.777 49.864 444.489 49.864C446.201 49.864 447.569 50.264 448.593 51.064C449.617 51.848 450.129 52.952 450.129 54.376C450.129 55.288 449.881 56.104 449.385 56.824C448.905 57.528 448.249 58.032 447.417 58.336C448.361 58.608 449.113 59.112 449.673 59.848C450.233 60.584 450.513 61.472 450.513 62.512C450.513 64 449.985 65.16 448.929 65.992C447.873 66.808 446.393 67.216 444.489 67.216ZM444.489 57.616C445.657 57.616 446.569 57.344 447.225 56.8C447.897 56.24 448.233 55.488 448.233 54.544C448.233 53.584 447.897 52.84 447.225 52.312C446.569 51.768 445.657 51.496 444.489 51.496C443.321 51.496 442.409 51.768 441.753 52.312C441.097 52.84 440.769 53.584 440.769 54.544C440.769 55.488 441.097 56.24 441.753 56.8C442.409 57.344 443.321 57.616 444.489 57.616ZM444.489 65.584C447.241 65.584 448.617 64.52 448.617 62.392C448.617 60.296 447.241 59.248 444.489 59.248C441.737 59.248 440.361 60.296 440.361 62.392C440.361 64.52 441.737 65.584 444.489 65.584ZM463.22 71.608C462.196 69.848 461.452 68.064 460.988 66.256C460.524 64.432 460.292 62.576 460.292 60.688C460.292 58.8 460.524 56.952 460.988 55.144C461.452 53.336 462.196 51.544 463.22 49.768L464.612 50.296C463.844 52.088 463.276 53.832 462.908 55.528C462.54 57.208 462.356 58.928 462.356 60.688C462.356 62.448 462.54 64.176 462.908 65.872C463.276 67.552 463.844 69.288 464.612 71.08L463.22 71.608ZM471.893 66.04V60.856H466.805V59.368H471.893V54.328H473.429V59.368H478.517V60.856H473.429V66.04H471.893ZM487.052 67.216C485.116 67.216 483.644 66.472 482.636 64.984C481.628 63.496 481.124 61.344 481.124 58.528C481.124 55.696 481.628 53.544 482.636 52.072C483.644 50.6 485.116 49.864 487.052 49.864C489.004 49.864 490.476 50.6 491.468 52.072C492.476 53.528 492.98 55.672 492.98 58.504C492.98 61.336 492.468 63.496 491.444 64.984C490.436 66.472 488.972 67.216 487.052 67.216ZM487.052 65.512C488.396 65.512 489.388 64.944 490.028 63.808C490.684 62.672 491.012 60.904 491.012 58.504C491.012 56.104 490.692 54.352 490.052 53.248C489.412 52.128 488.412 51.568 487.052 51.568C485.708 51.568 484.708 52.128 484.052 53.248C483.412 54.368 483.092 56.12 483.092 58.504C483.092 60.904 483.412 62.672 484.052 63.808C484.708 64.944 485.708 65.512 487.052 65.512ZM495.754 67V64.552H498.202V67H495.754ZM506.903 67.216C504.967 67.216 503.495 66.472 502.487 64.984C501.479 63.496 500.975 61.344 500.975 58.528C500.975 55.696 501.479 53.544 502.487 52.072C503.495 50.6 504.967 49.864 506.903 49.864C508.855 49.864 510.327 50.6 511.319 52.072C512.327 53.528 512.831 55.672 512.831 58.504C512.831 61.336 512.319 63.496 511.295 64.984C510.287 66.472 508.823 67.216 506.903 67.216ZM506.903 65.512C508.247 65.512 509.239 64.944 509.879 63.808C510.535 62.672 510.863 60.904 510.863 58.504C510.863 56.104 510.543 54.352 509.903 53.248C509.263 52.128 508.263 51.568 506.903 51.568C505.559 51.568 504.559 52.128 503.903 53.248C503.263 54.368 502.943 56.12 502.943 58.504C502.943 60.904 503.263 62.672 503.903 63.808C504.559 64.944 505.559 65.512 506.903 65.512ZM521.294 67.216C519.358 67.216 517.886 66.472 516.878 64.984C515.87 63.496 515.366 61.344 515.366 58.528C515.366 55.696 515.87 53.544 516.878 52.072C517.886 50.6 519.358 49.864 521.294 49.864C523.246 49.864 524.718 50.6 525.71 52.072C526.718 53.528 527.222 55.672 527.222 58.504C527.222 61.336 526.71 63.496 525.686 64.984C524.678 66.472 523.214 67.216 521.294 67.216ZM521.294 65.512C522.638 65.512 523.63 64.944 524.27 63.808C524.926 62.672 525.254 60.904 525.254 58.504C525.254 56.104 524.934 54.352 524.294 53.248C523.654 52.128 522.654 51.568 521.294 51.568C519.95 51.568 518.95 52.128 518.294 53.248C517.654 54.368 517.334 56.12 517.334 58.504C517.334 60.904 517.654 62.672 518.294 63.808C518.95 64.944 519.95 65.512 521.294 65.512ZM537.532 67V63.376H529.732V61.888L537.868 50.08H539.524V61.696H542.044V63.376H539.524V67H537.532ZM537.532 61.696V53.32L531.772 61.696H537.532ZM549.739 67.6L548.371 66.808L558.331 49.48L559.675 50.272L549.739 67.6ZM548.299 60.232C547.019 60.232 546.019 59.776 545.299 58.864C544.579 57.952 544.219 56.68 544.219 55.048C544.219 53.416 544.579 52.152 545.299 51.256C546.019 50.344 547.019 49.888 548.299 49.888C549.563 49.888 550.555 50.344 551.275 51.256C552.011 52.152 552.379 53.416 552.379 55.048C552.379 56.68 552.011 57.952 551.275 58.864C550.555 59.776 549.563 60.232 548.299 60.232ZM548.299 58.816C549.035 58.816 549.619 58.504 550.051 57.88C550.483 57.24 550.699 56.296 550.699 55.048C550.699 53.8 550.483 52.864 550.051 52.24C549.619 51.616 549.035 51.304 548.299 51.304C547.547 51.304 546.955 51.616 546.523 52.24C546.107 52.864 545.899 53.8 545.899 55.048C545.899 56.296 546.107 57.24 546.523 57.88C546.955 58.504 547.547 58.816 548.299 58.816ZM559.771 67.216C558.507 67.216 557.507 66.76 556.771 65.848C556.051 64.936 555.691 63.664 555.691 62.032C555.691 60.416 556.051 59.152 556.771 58.24C557.507 57.328 558.507 56.872 559.771 56.872C561.051 56.872 562.051 57.328 562.771 58.24C563.491 59.152 563.851 60.416 563.851 62.032C563.851 63.664 563.491 64.936 562.771 65.848C562.051 66.76 561.051 67.216 559.771 67.216ZM559.771 65.8C560.523 65.8 561.107 65.488 561.523 64.864C561.955 64.224 562.171 63.28 562.171 62.032C562.171 60.784 561.955 59.848 561.523 59.224C561.107 58.6 560.523 58.288 559.771 58.288C559.035 58.288 558.451 58.6 558.019 59.224C557.603 59.848 557.395 60.784 557.395 62.032C557.395 63.296 557.603 64.24 558.019 64.864C558.451 65.488 559.035 65.8 559.771 65.8ZM567.42 71.608L566.028 71.08C566.796 69.272 567.356 67.528 567.708 65.848C568.076 64.152 568.26 62.432 568.26 60.688C568.26 58.944 568.076 57.232 567.708 55.552C567.356 53.856 566.796 52.104 566.028 50.296L567.42 49.768C568.444 51.544 569.188 53.336 569.652 55.144C570.116 56.952 570.348 58.8 570.348 60.688C570.348 62.576 570.116 64.432 569.652 66.256C569.188 68.064 568.444 69.848 567.42 71.608Z" fill="#0145D1"/>
<rect x="888" y="38" width="68" height="41" rx="7" fill="#0145D1"/>
<rect x="973" y="38" width="68" height="41" rx="7" fill="#111418"/>
<rect x="1058" y="38" width="68" height="41" rx="7" fill="#111418"/>
<rect x="1143" y="38" width="68" height="41" rx="7" fill="#111418"/>
<rect x="1228" y="38" width="68" height="41" rx="7" fill="#111418"/>
<path d="M909.616 67V64.456H913.432V53.584L910.48 55.36L909.28 53.104L914.32 50.08H916.504V64.456H920.08V67H909.616ZM922.951 67V50.08H925.951V56.968C926.351 56.328 926.887 55.848 927.559 55.528C928.231 55.192 928.975 55.024 929.791 55.024C932.559 55.024 933.943 56.632 933.943 59.848V67H930.943V59.992C930.943 59.08 930.767 58.416 930.415 58C930.079 57.584 929.551 57.376 928.831 57.376C927.951 57.376 927.247 57.656 926.719 58.216C926.207 58.76 925.951 59.488 925.951 60.4V67H922.951ZM989.1 67V64.72L994.572 58.888C995.308 58.088 995.836 57.384 996.156 56.776C996.476 56.152 996.636 55.52 996.636 54.88C996.636 53.248 995.652 52.432 993.684 52.432C992.148 52.432 990.732 53.008 989.436 54.16L988.404 51.856C989.076 51.248 989.916 50.76 990.924 50.392C991.932 50.024 992.98 49.84 994.068 49.84C995.876 49.84 997.26 50.248 998.22 51.064C999.196 51.88 999.684 53.048 999.684 54.568C999.684 55.592 999.436 56.576 998.94 57.52C998.46 58.464 997.7 59.48 996.66 60.568L992.94 64.456H1000.33V67H989.1ZM1009.95 67V63.784H1002.58V61.528L1010.47 50.08H1013.02V61.24H1015.39V63.784H1013.02V67H1009.95ZM1009.95 61.24V54.784L1005.53 61.24H1009.95ZM1017.52 67V50.08H1020.52V56.968C1020.92 56.328 1021.46 55.848 1022.13 55.528C1022.8 55.192 1023.54 55.024 1024.36 55.024C1027.13 55.024 1028.51 56.632 1028.51 59.848V67H1025.51V59.992C1025.51 59.08 1025.34 58.416 1024.98 58C1024.65 57.584 1024.12 57.376 1023.4 57.376C1022.52 57.376 1021.82 57.656 1021.29 58.216C1020.78 58.76 1020.52 59.488 1020.52 60.4V67H1017.52ZM1077.9 67V64.456H1081.71V53.584L1078.76 55.36L1077.56 53.104L1082.6 50.08H1084.79V64.456H1088.36V67H1077.9ZM1094.47 67L1089.84 55.264H1092.91L1095.91 63.52L1098.94 55.264H1101.05L1104.07 63.568L1107.07 55.264H1109.98L1105.37 67H1102.75L1099.9 59.44L1097.09 67H1094.47ZM1164.5 67V64.456H1168.31V53.584L1165.36 55.36L1164.16 53.104L1169.2 50.08H1171.39V64.456H1174.96V67H1164.5ZM1177.88 67V55.264H1180.81V57.064C1181.16 56.424 1181.65 55.928 1182.27 55.576C1182.9 55.208 1183.62 55.024 1184.43 55.024C1186.19 55.024 1187.35 55.792 1187.89 57.328C1188.26 56.608 1188.79 56.048 1189.47 55.648C1190.16 55.232 1190.95 55.024 1191.83 55.024C1194.47 55.024 1195.79 56.632 1195.79 59.848V67H1192.79V59.968C1192.79 59.072 1192.63 58.416 1192.33 58C1192.04 57.584 1191.55 57.376 1190.84 57.376C1190.06 57.376 1189.44 57.656 1188.99 58.216C1188.55 58.76 1188.32 59.52 1188.32 60.496V67H1185.32V59.968C1185.32 59.072 1185.17 58.416 1184.87 58C1184.58 57.584 1184.09 57.376 1183.4 57.376C1182.62 57.376 1182 57.656 1181.55 58.216C1181.11 58.76 1180.88 59.52 1180.88 60.496V67H1177.88ZM1251.69 67V64.456H1255.5V53.584L1252.55 55.36L1251.35 53.104L1256.39 50.08H1258.57V64.456H1262.15V67H1251.69ZM1266.08 71.32L1268.24 66.52L1263.36 55.264H1266.56L1269.84 63.472L1273.2 55.264H1276.23L1269.17 71.32H1266.08Z" fill="white"/>
<circle cx="1343" cy="58" r="21" fill="#21272F"/>
<path fill-rule="evenodd" clip-rule="evenodd" d="M1343.29 55.4737C1344.96 55.4737 1346.32 56.8284 1346.32 58.5C1346.32 60.1716 1344.96 61.5263 1343.29 61.5263C1341.62 61.5263 1340.26 60.1716 1340.26 58.5C1340.26 56.8284 1341.62 55.4737 1343.29 55.4737Z" stroke="#A812D7" stroke-width="1.5" stroke-linecap="round" stroke-linejoin="round"/>
<path fill-rule="evenodd" clip-rule="evenodd" d="M1353.18 52.7503C1352.35 51.307 1350.52 50.8132 1349.09 51.6466C1347.84 52.3701 1346.28 51.4649 1346.28 50.0168C1346.28 48.3512 1344.94 47 1343.29 47C1341.64 47 1340.29 48.3512 1340.29 50.0168C1340.29 51.4649 1338.74 52.3701 1337.49 51.6466C1336.06 50.8132 1334.23 51.307 1333.4 52.7503C1332.58 54.1936 1333.07 56.0386 1334.5 56.8708C1335.74 57.5954 1335.74 59.4046 1334.5 60.1292C1333.07 60.9626 1332.58 62.8077 1333.4 64.2498C1334.23 65.6929 1336.06 66.1868 1337.49 65.3546H1337.49C1338.74 64.63 1340.29 65.5351 1340.29 66.9831C1340.29 68.6488 1341.64 70 1343.29 70C1344.94 70 1346.28 68.6488 1346.28 66.9831C1346.28 65.5351 1347.84 64.63 1349.09 65.3546C1350.52 66.1868 1352.35 65.6929 1353.18 64.2498C1354 62.8077 1353.51 60.9626 1352.08 60.1292H1352.08C1350.84 59.4046 1350.84 57.5954 1352.08 56.8708C1353.51 56.0386 1354 54.1936 1353.18 52.7503Z" stroke="#A812D7" stroke-width="1.5" stroke-linecap="round" stroke-linejoin="round"/>
<defs>
<filter id="filter0_d_329_73" x="1031.44" y="416.758" width="37" height="37" filterUnits="userSpaceOnUse" color-interpolation-filters="sRGB">
<feFlood flood-opacity="0" result="BackgroundImageFix"/>
<feColorMatrix in="SourceAlpha" type="matrix" values="0 0 0 0 0 0 0 0 0 0 0 0 0 0 0 0 0 0 127 0" result="hardAlpha"/>
<feOffset dy="3"/>
<feGaussianBlur stdDeviation="1.5"/>
<feComposite in2="hardAlpha" operator="out"/>
<feColorMatrix type="matrix" values="0 0 0 0 0 0 0 0 0 0 0 0 0 0 0 0 0 0 0.25 0"/>
<feBlend mode="normal" in2="BackgroundImageFix" result="effect1_dropShadow_329_73"/>
<feBlend mode="normal" in="SourceGraphic" in2="effect1_dropShadow_329_73" result="shape"/>
</filter>
<linearGradient id="paint0_linear_329_73" x1="869.564" y1="259.199" x2="974.799" y2="693.194" gradientUnits="userSpaceOnUse">
<stop stop-color="#0145D1"/>
<stop offset="0.833333" stop-color="#1A57D5" stop-opacity="0"/>
</linearGradient>
</defs>
</svg>
