<svg aria-hidden="true" style="position: absolute; width: 0; height: 0; overflow: hidden;" version="1.1" xmlns="http://www.w3.org/2000/svg" xmlns:xlink="http://www.w3.org/1999/xlink">
<defs>
<symbol id="icon-Group-9" viewBox="0 0 32 32">
<path fill="#21272f" style="fill: var(--color1, #21272f)" d="M32 16c0 8.837-7.163 16-16 16s-16-7.163-16-16c0-8.837 7.163-16 16-16s16 7.163 16 16z"></path>
<path fill="#a812d7" style="fill: var(--color2, #a812d7)" d="M12.275 9.673h2.794v8.448h-2.794v2.816h-1.862v-2.816h-2.794v-8.448h2.794v-2.816h1.862v2.816zM9.481 11.55v4.693h3.725v-4.693h-3.725zM21.587 14.366h2.794v8.448h-2.794v2.816h-1.862v-2.816h-2.794v-8.448h2.794v-2.816h1.862v2.816zM18.794 16.244v4.693h3.725v-4.693h-3.725z"></path>
</symbol>

<symbol id="icon-logo-1" viewBox="0 0 32 32">
<path fill="#ffbd00" style="fill: var(--color1, #ffbd00)" d="M10.569 16.083l1.382 0.112 0.491 0.506-1.333-0.061-0.54-0.556z"></path>
<path fill="#e1ff16" style="fill: var(--color2, #e1ff16)" d="M11.625 19.074l0.768-0.073 0.278 0.947-0.739 0.168-0.307-1.042z"></path>
<path fill="#ff3f00" style="fill: var(--color3, #ff3f00)" d="M12.264 10.683l-0.040 1.202 0.83 1.537 0.065-1.153-0.854-1.585z"></path>
<path fill="#ff6f00" style="fill: var(--color4, #ff6f00)" d="M3.24 13.602l0.075 0.818 0.682-0.818-0.028-0.877-0.729 0.877z"></path>
<path fill="#ffb600" style="fill: var(--color5, #ffb600)" d="M13.742 15.128l-0.246 0.997 0.51 1.755 0.266-0.924-0.53-1.828z"></path>
<path fill="#ff9800" style="fill: var(--color6, #ff9800)" d="M7.051 15.088l1.186 0.292 0.578-0.066-1.129-0.299-0.634 0.073z"></path>
<path fill="#ff9400" style="fill: var(--color7, #ff9400)" d="M3.486 15.098l0.352 0.54 0.583-0.695-0.303-0.602-0.633 0.757z"></path>
<path fill="#b7ff40" style="fill: var(--color8, #b7ff40)" d="M13.916 20.395l-0.547 0.519 0.158 1.652 0.555-0.419-0.165-1.752z"></path>
<path fill="#a40000" style="fill: var(--color9, #a40000)" d="M7.91 6.894l0.088 1.312 1.135 0.49-0.053-1.299-1.17-0.503z"></path>
<path fill="#a7ff50" style="fill: var(--color10, #a7ff50)" d="M11.92 21.479l-0.071-0.089 0.119 1.205 0.082 0.201-0.13-1.317z"></path>
<path fill="#c7ff30" style="fill: var(--color11, #c7ff30)" d="M11.618 20.199l0.314-0.082 0.21 1.085-0.293 0.189-0.231-1.191z"></path>
<path fill="#ff8200" style="fill: var(--color12, #ff8200)" d="M3.316 14.42l0.17 0.678 0.633-0.757-0.121-0.74-0.682 0.818z"></path>
<path fill="#f1fc06" style="fill: var(--color13, #f1fc06)" d="M14.006 17.881l-0.421 0.78 0.33 1.735 0.436-0.691-0.345-1.823z"></path>
<path fill="#fbf100" style="fill: var(--color14, #fbf100)" d="M11.228 18.103l0.805 0.016 0.36 0.883-0.768 0.072-0.397-0.972z"></path>
<path fill="#ff1300" style="fill: var(--color15, #ff1300)" d="M11.288 9.318l-0.012 1.243 0.948 1.324 0.040-1.202-0.976-1.365z"></path>
<path fill="#c40000" style="fill: var(--color16, #c40000)" d="M5.756 8.175l0.062 1.264 1.063-0.135-0.019-1.272-1.105 0.144z"></path>
<path fill="#b60000" style="fill: var(--color17, #b60000)" d="M9.080 7.397l0.053 1.299 1.103 0.792-0.020-1.276-1.136-0.816z"></path>
<path fill="#ff9400" style="fill: var(--color7, #ff9400)" d="M7.685 15.016l1.129 0.299 0.592 0.097-1.070-0.289-0.651-0.107z"></path>
<path fill="#ff8d00" style="fill: var(--color18, #ff8d00)" d="M5.596 14.951l0.854 0.388 0.601-0.25-0.796-0.413-0.659 0.276z"></path>
<path fill="#ff8d00" style="fill: var(--color18, #ff8d00)" d="M4.422 14.943l0.569 0.47 0.605-0.462-0.514-0.514-0.66 0.506z"></path>
<path fill="#d10000" style="fill: var(--color19, #d10000)" d="M10.216 8.212l0.020 1.276 1.040 1.073 0.012-1.243-1.071-1.106z"></path>
<path fill="#ff3800" style="fill: var(--color20, #ff3800)" d="M3.955 11.716l0.015 1.008 0.826-0.641 0.035-1.049-0.876 0.683z"></path>
<path fill="#adff49" style="fill: var(--color21, #adff49)" d="M12.267 21.443l-0.348 0.036 0.13 1.317 0.358 0.079-0.14-1.432z"></path>
<path fill="#b4ff43" style="fill: var(--color22, #b4ff43)" d="M13.369 20.914l-0.582 0.346 0.149 1.544 0.591-0.238-0.158-1.652z"></path>
<path fill="#ffd300" style="fill: var(--color23, #ffd300)" d="M10.752 17.228l0.849 0.096 0.432 0.795-0.805-0.016-0.476-0.875z"></path>
<path fill="#f10800" style="fill: var(--color24, #f10800)" d="M4.813 9.874l0.017 1.16 0.957-0.411 0.031-1.183-1.004 0.435z"></path>
<path fill="#ff9400" style="fill: var(--color7, #ff9400)" d="M8.335 15.122l1.070 0.289 0.59 0.258-1.012-0.263-0.649-0.284z"></path>
<path fill="#b1ff46" style="fill: var(--color25, #b1ff46)" d="M12.787 21.261l-0.519 0.182 0.14 1.431 0.528-0.070-0.149-1.544z"></path>
<path fill="#ebff0c" style="fill: var(--color26, #ebff0c)" d="M11.28 19.054l0.345 0.020 0.307 1.042-0.314 0.082-0.338-1.145z"></path>
<path fill="#ff7e00" style="fill: var(--color27, #ff7e00)" d="M13.053 13.422l-0.22 1.065 0.663 1.639 0.246-0.997-0.689-1.707z"></path>
<path fill="#ffb900" style="fill: var(--color28, #ffb900)" d="M10.21 16.473l0.899 0.166 0.492 0.685-0.85-0.097-0.542-0.754z"></path>
<path fill="#ff9c00" style="fill: var(--color29, #ff9c00)" d="M8.985 15.406l1.012 0.263 0.573 0.413-0.954-0.222-0.63-0.454z"></path>
<path fill="#ceff29" style="fill: var(--color30, #ceff29)" d="M11.667 20.176l-0.050 0.023 0.231 1.191 0.071 0.089-0.253-1.302z"></path>
<path fill="#ffa700" style="fill: var(--color31, #ffa700)" d="M9.615 15.861l0.954 0.222 0.54 0.556-0.899-0.166-0.594-0.613z"></path>
<path fill="#f70" style="fill: var(--color32, #f70)" d="M4.119 14.341l0.303 0.602 0.66-0.506-0.246-0.647-0.717 0.552z"></path>
<path fill="#ff8200" style="fill: var(--color12, #ff8200)" d="M6.255 14.676l0.796 0.413 0.634-0.073-0.735-0.421-0.696 0.081z"></path>
<path fill="#ff4a00" style="fill: var(--color33, #ff4a00)" d="M3.97 12.724l0.028 0.877 0.773-0.597 0.025-0.921-0.826 0.641z"></path>
<path fill="#b60000" style="fill: var(--color17, #b60000)" d="M6.861 8.031l0.019 1.272 1.092 0.17 0.025-1.268-1.136-0.175z"></path>
<path fill="#ebff0c" style="fill: var(--color26, #ebff0c)" d="M13.586 18.66l-0.53 0.619 0.313 1.635 0.547-0.519-0.33-1.735z"></path>
<path fill="#ff6000" style="fill: var(--color34, #ff6000)" d="M3.998 13.602l0.121 0.74 0.717-0.552-0.065-0.785-0.773 0.597z"></path>
<path fill="#f70" style="fill: var(--color32, #f70)" d="M5.082 14.437l0.514 0.514 0.659-0.276-0.453-0.541-0.72 0.303z"></path>
<path fill="#ffc100" style="fill: var(--color35, #ffc100)" d="M13.496 16.126l-0.397 0.865 0.487 1.67 0.421-0.779-0.51-1.755z"></path>
<path fill="#ffe200" style="fill: var(--color36, #ffe200)" d="M10.843 17.986l0.385 0.116 0.397 0.972-0.345-0.020-0.436-1.068z"></path>
<path fill="#d7ff1f" style="fill: var(--color37, #d7ff1f)" d="M11.994 20.027l-0.326 0.149 0.253 1.302 0.348-0.036-0.274-1.416z"></path>
<path fill="#ff4a00" style="fill: var(--color33, #ff4a00)" d="M12.224 11.885l-0.188 1.126 0.798 1.476 0.22-1.065-0.83-1.537z"></path>
<path fill="#ff7a00" style="fill: var(--color38, #ff7a00)" d="M6.95 14.594l0.735 0.421 0.65 0.107-0.671-0.411-0.714-0.117z"></path>
<path fill="#ff1a00" style="fill: var(--color39, #ff1a00)" d="M4.831 11.034l-0.035 1.049 0.902-0.385 0.089-1.075-0.957 0.411z"></path>
<path fill="#da0000" style="fill: var(--color40, #da0000)" d="M5.818 9.439l-0.031 1.183 1.012-0.126 0.082-1.192-1.063 0.135z"></path>
<path fill="#f4f802" style="fill: var(--color41, #f4f802)" d="M11.297 18.924l-0.018 0.13 0.338 1.145 0.050-0.023-0.37-1.253z"></path>
<path fill="#e4ff13" style="fill: var(--color42, #e4ff13)" d="M13.056 19.279l-0.563 0.454 0.294 1.528 0.582-0.346-0.313-1.635z"></path>
<path fill="#b00" style="fill: var(--color43, #b00)" d="M7.997 8.206l-0.025 1.268 1.091 0.472 0.069-1.25-1.135-0.49z"></path>
<path fill="#ffc100" style="fill: var(--color35, #ffc100)" d="M10.32 17.025l0.432 0.203 0.476 0.875-0.385-0.116-0.523-0.961z"></path>
<path fill="#deff19" style="fill: var(--color44, #deff19)" d="M12.493 19.733l-0.499 0.294 0.274 1.416 0.519-0.182-0.294-1.528z"></path>
<path fill="#ff6000" style="fill: var(--color34, #ff6000)" d="M4.835 13.789l0.246 0.647 0.72-0.302-0.184-0.675-0.782 0.33z"></path>
<path fill="#ff7e00" style="fill: var(--color27, #ff7e00)" d="M7.664 14.712l0.671 0.411 0.649 0.284-0.607-0.383-0.713-0.312z"></path>
<path fill="#ff6c00" style="fill: var(--color45, #ff6c00)" d="M5.801 14.134l0.453 0.541 0.696-0.081-0.389-0.55-0.76 0.089z"></path>
<path fill="#ff1e00" style="fill: var(--color46, #ff1e00)" d="M11.276 10.561l-0.152 1.178 0.911 1.272 0.188-1.126-0.948-1.324z"></path>
<path fill="#ffa700" style="fill: var(--color31, #ffa700)" d="M9.723 16.196l0.486 0.278 0.543 0.754-0.432-0.203-0.596-0.829z"></path>
<path fill="#c80000" style="fill: var(--color47, #c80000)" d="M9.133 8.695l-0.069 1.25 1.060 0.762 0.112-1.22-1.103-0.792z"></path>
<path fill="#ff8600" style="fill: var(--color48, #ff8600)" d="M8.377 15.023l0.607 0.383 0.63 0.454-0.545-0.338-0.693-0.499z"></path>
<path fill="#ff3000" style="fill: var(--color49, #ff3000)" d="M4.796 12.083l-0.025 0.921 0.843-0.358 0.084-0.949-0.902 0.385z"></path>
<path fill="#ff8900" style="fill: var(--color50, #ff8900)" d="M12.833 14.486l-0.366 0.945 0.632 1.559 0.397-0.865-0.663-1.639z"></path>
<path fill="#ff9400" style="fill: var(--color7, #ff9400)" d="M9.070 15.523l0.545 0.338 0.595 0.613-0.486-0.278-0.653-0.673z"></path>
<path fill="#e40000" style="fill: var(--color51, #e40000)" d="M10.236 9.488l-0.112 1.22 1 1.031 0.152-1.178-1.040-1.073z"></path>
<path fill="#ffc800" style="fill: var(--color52, #ffc800)" d="M13.098 16.991l-0.504 0.715 0.461 1.574 0.53-0.619-0.487-1.67z"></path>
<path fill="#ff4a00" style="fill: var(--color33, #ff4a00)" d="M4.77 13.004l0.065 0.785 0.782-0.33-0.004-0.813-0.843 0.358z"></path>
<path fill="#ffd300" style="fill: var(--color23, #ffd300)" d="M10.82 17.755l0.023 0.231 0.436 1.068 0.018-0.13-0.477-1.168z"></path>
<path fill="#feed00" style="fill: var(--color53, #feed00)" d="M11.592 18.665l-0.295 0.258 0.37 1.252 0.326-0.149-0.401-1.362z"></path>
<path fill="#cd0000" style="fill: var(--color54, #cd0000)" d="M6.881 9.303l-0.082 1.192 1.040 0.164 0.134-1.186-1.092-0.17z"></path>
<path fill="#ff6400" style="fill: var(--color55, #ff6400)" d="M6.562 14.045l0.389 0.55 0.714 0.117-0.322-0.539-0.781-0.127z"></path>
<path fill="#f10800" style="fill: var(--color24, #f10800)" d="M5.787 10.623l-0.089 1.075 0.954-0.117 0.147-1.085-1.012 0.126z"></path>
<path fill="#ffd300" style="fill: var(--color23, #ffd300)" d="M12.595 17.706l-0.534 0.557 0.432 1.47 0.563-0.454-0.461-1.574z"></path>
<path fill="#ff5200" style="fill: var(--color56, #ff5200)" d="M5.617 13.459l0.184 0.675 0.76-0.089-0.118-0.684-0.826 0.098z"></path>
<path fill="#ffe200" style="fill: var(--color36, #ffe200)" d="M12.060 18.263l-0.468 0.402 0.401 1.362 0.499-0.294-0.432-1.47z"></path>
<path fill="#ffb200" style="fill: var(--color57, #ffb200)" d="M10.248 16.703l0.072 0.322 0.523 0.961-0.023-0.231-0.573-1.052z"></path>
<path fill="#ff5900" style="fill: var(--color58, #ff5900)" d="M12.035 13.011l-0.329 1.017 0.76 1.404 0.366-0.945-0.798-1.476z"></path>
<path fill="#ff6400" style="fill: var(--color55, #ff6400)" d="M7.343 14.172l0.322 0.539 0.713 0.312-0.255-0.51-0.78-0.341z"></path>
<path fill="#f20" style="fill: var(--color59, #f20)" d="M5.698 11.698l-0.084 0.949 0.892-0.108 0.147-0.958-0.954 0.117z"></path>
<path fill="#ffc400" style="fill: var(--color60, #ffc400)" d="M11.074 17.395l-0.254 0.361 0.477 1.168 0.295-0.258-0.519-1.271z"></path>
<path fill="#ff3800" style="fill: var(--color20, #ff3800)" d="M5.614 12.646l0.004 0.813 0.826-0.098 0.062-0.822-0.892 0.108z"></path>
<path fill="#ff9400" style="fill: var(--color7, #ff9400)" d="M12.466 15.432l-0.469 0.805 0.597 1.469 0.503-0.715-0.632-1.559z"></path>
<path fill="#d10000" style="fill: var(--color19, #d10000)" d="M7.973 9.473l-0.134 1.186 1.039 0.451 0.186-1.165-1.091-0.472z"></path>
<path fill="#ff9400" style="fill: var(--color7, #ff9400)" d="M9.595 15.796l0.128 0.4 0.596 0.829-0.072-0.322-0.653-0.907z"></path>
<path fill="#ff6c00" style="fill: var(--color45, #ff6c00)" d="M8.122 14.513l0.255 0.51 0.693 0.499-0.19-0.463-0.758-0.546z"></path>
<path fill="#ff7e00" style="fill: var(--color27, #ff7e00)" d="M8.88 15.059l0.19 0.463 0.653 0.673-0.128-0.4-0.715-0.737z"></path>
<path fill="#ff3000" style="fill: var(--color49, #ff3000)" d="M11.124 11.739l-0.285 1.079 0.868 1.21 0.329-1.017-0.911-1.272z"></path>
<path fill="#ff4a00" style="fill: var(--color33, #ff4a00)" d="M6.444 13.361l0.118 0.684 0.781 0.127-0.050-0.674-0.849-0.137z"></path>
<path fill="#e80000" style="fill: var(--color61, #e80000)" d="M6.799 10.496l-0.147 1.085 0.98 0.156 0.206-1.077-1.040-0.164z"></path>
<path fill="#df0000" style="fill: var(--color62, #df0000)" d="M9.064 9.946l-0.186 1.165 1.009 0.726 0.237-1.129-1.060-0.762z"></path>
<path fill="#ffb200" style="fill: var(--color57, #ffb200)" d="M11.502 16.891l-0.428 0.504 0.519 1.271 0.468-0.402-0.559-1.372z"></path>
<path fill="#fa0f00" style="fill: var(--color63, #fa0f00)" d="M10.124 10.708l-0.237 1.129 0.952 0.982 0.285-1.079-1-1.031z"></path>
<path fill="#ffa300" style="fill: var(--color64, #ffa300)" d="M11.998 16.237l-0.496 0.654 0.559 1.372 0.534-0.557-0.597-1.469z"></path>
<path fill="#ff9f00" style="fill: var(--color65, #ff9f00)" d="M10.452 16.251l-0.204 0.453 0.573 1.052 0.254-0.361-0.622-1.144z"></path>
<path fill="#ff6800" style="fill: var(--color66, #ff6800)" d="M11.707 14.028l-0.426 0.886 0.717 1.323 0.469-0.805-0.76-1.404z"></path>
<path fill="#ff3000" style="fill: var(--color49, #ff3000)" d="M6.506 12.538l-0.062 0.822 0.849 0.137 0.129-0.812-0.916-0.147z"></path>
<path fill="#ff4a00" style="fill: var(--color33, #ff4a00)" d="M7.293 13.498l0.050 0.674 0.78 0.341 0.018-0.645-0.848-0.37z"></path>
<path fill="#ff1a00" style="fill: var(--color39, #ff1a00)" d="M6.652 11.581l-0.147 0.958 0.916 0.147 0.211-0.949-0.98-0.156z"></path>
<path fill="#ff7e00" style="fill: var(--color27, #ff7e00)" d="M9.742 15.264l-0.147 0.533 0.653 0.907 0.204-0.453-0.71-0.986z"></path>
<path fill="#ed0400" style="fill: var(--color67, #ed0400)" d="M7.839 10.66l-0.206 1.077 0.98 0.426 0.265-1.052-1.039-0.451z"></path>
<path fill="#f50" style="fill: var(--color68, #f50)" d="M8.141 13.869l-0.018 0.645 0.758 0.546 0.084-0.597-0.824-0.594z"></path>
<path fill="#ff8d00" style="fill: var(--color18, #ff8d00)" d="M10.831 15.655l-0.379 0.595 0.622 1.144 0.428-0.504-0.671-1.236z"></path>
<path fill="#ff6800" style="fill: var(--color66, #ff6800)" d="M8.965 14.463l-0.084 0.597 0.715 0.737 0.147-0.533-0.777-0.801z"></path>
<path fill="#ff7a00" style="fill: var(--color38, #ff7a00)" d="M11.281 14.914l-0.45 0.742 0.671 1.236 0.496-0.654-0.717-1.323z"></path>
<path fill="#ff4300" style="fill: var(--color69, #ff4300)" d="M10.839 12.818l-0.377 0.955 0.819 1.14 0.426-0.886-0.868-1.21z"></path>
<path fill="#ff3400" style="fill: var(--color70, #ff3400)" d="M7.421 12.686l-0.129 0.812 0.848 0.37 0.196-0.784-0.915-0.399z"></path>
<path fill="#fa0f00" style="fill: var(--color63, #fa0f00)" d="M8.878 11.111l-0.265 1.052 0.952 0.685 0.323-1.011-1.009-0.726z"></path>
<path fill="#ff1a00" style="fill: var(--color39, #ff1a00)" d="M7.633 11.737l-0.211 0.949 0.915 0.399 0.275-0.922-0.98-0.426z"></path>
<path fill="#f20" style="fill: var(--color59, #f20)" d="M9.887 11.837l-0.323 1.011 0.898 0.925 0.377-0.955-0.952-0.982z"></path>
<path fill="#ff6800" style="fill: var(--color66, #ff6800)" d="M10.065 14.591l-0.323 0.673 0.71 0.986 0.379-0.595-0.765-1.065z"></path>
<path fill="#f50" style="fill: var(--color68, #f50)" d="M10.462 13.773l-0.397 0.817 0.765 1.065 0.45-0.742-0.819-1.14z"></path>
<path fill="#ff3b00" style="fill: var(--color71, #ff3b00)" d="M8.337 13.085l-0.196 0.784 0.824 0.594 0.262-0.737-0.889-0.641z"></path>
<path fill="#ff4e00" style="fill: var(--color72, #ff4e00)" d="M9.226 13.726l-0.262 0.737 0.777 0.801 0.323-0.673-0.839-0.865z"></path>
<path fill="#ff2500" style="fill: var(--color73, #ff2500)" d="M8.613 12.163l-0.275 0.922 0.889 0.641 0.338-0.878-0.952-0.685z"></path>
<path fill="#ff3800" style="fill: var(--color20, #ff3800)" d="M9.564 12.848l-0.338 0.877 0.839 0.865 0.397-0.817-0.898-0.925z"></path>
</symbol>
<symbol id="icon-logo-2" viewBox="0 0 32 32">
<path fill="none" stroke="#f19242" style="stroke: var(--color74, #f19242)" stroke-linejoin="miter" stroke-linecap="butt" stroke-miterlimit="4" stroke-width="1.7297" d="M0.865 15.999v0c-0.001 8.12 6.582 14.703 14.699 14.703l-14.699-14.704zM0.865 15.999c-0.002-8.119 6.581-14.702 14.702-14.702s14.705 6.584 14.705 14.703c0 8.118-6.583 14.701-14.707 14.702l-14.7-14.704z"></path>
<path fill="#f19242" style="fill: var(--color74, #f19242)" d="M21.693 12.187c-0.2-2.085-2-2.784-4.275-2.983v-2.893h-1.76v2.816c-0.462 0-0.936 0.009-1.405 0.019v-2.835h-1.76l-0.001 2.891c-0.381 0.008-0.756 0.015-1.121 0.015v-0.009l-2.428-0.001v1.881c0 0 1.3-0.025 1.278-0.001 0.714 0 0.945 0.414 1.013 0.771v3.295c0.050 0 0.113 0.002 0.186 0.012h-0.186l-0.001 4.617c-0.031 0.224-0.163 0.582-0.661 0.583 0.022 0.020-1.279 0-1.279 0l-0.35 2.102h2.292c0.426 0 0.846 0.008 1.257 0.010l0.001 2.926h1.759v-2.894c0.482 0.010 0.949 0.014 1.406 0.014l-0.001 2.881h1.76v-2.919c2.96-0.169 5.034-0.915 5.29-3.695 0.208-2.238-0.845-3.238-2.525-3.642 1.023-0.518 1.662-1.434 1.512-2.959zM19.229 18.442c0 2.186-3.743 1.938-4.938 1.938v-3.877c1.195 0.003 4.938-0.34 4.938 1.939zM18.41 12.973c0 1.989-3.124 1.756-4.118 1.757v-3.515c0.995 0 4.119-0.316 4.118 1.757z"></path>
</symbol>
<symbol id="icon-logo-3" viewBox="0 0 32 32">
<path fill="#607bee" style="fill: var(--color75, #607bee)" d="M32 16c0 8.837-7.163 16-16 16s-16-7.163-16-16c0-8.837 7.163-16 16-16s16 7.163 16 16z"></path>
<path fill="#fff" style="fill: var(--color76, #fff)" d="M15.785 6.251v0.010c0.010 0.049 0.010 0.107 0.010 0.165v7.008c-0.010 0.039-0.039 0.049-0.068 0.068-0.204 0.097-0.399 0.185-0.603 0.272-0.282 0.126-0.573 0.262-0.855 0.389l-1.021 0.466c-0.282 0.126-0.564 0.253-0.836 0.379-0.331 0.155-0.671 0.301-1.001 0.457-0.282 0.126-0.564 0.262-0.855 0.389-0.233 0.107-0.466 0.204-0.69 0.311-0.019 0.010-0.039 0.019-0.058 0.019-0.010 0-0.010 0-0.019-0.010l0.262-0.437c0.505-0.836 1.001-1.662 1.507-2.498 0.534-0.894 1.079-1.788 1.613-2.683 0.496-0.826 1.001-1.652 1.497-2.478 0.36-0.603 0.729-1.205 1.089-1.808 0.010-0.019 0.019-0.029 0.019-0.049h0.010c-0.010 0.010 0 0.019 0 0.029z"></path>
<path fill="#fff" style="fill: var(--color76, #fff)" d="M21.752 16.175l0.010 0.010-5.919 3.499c-0.019 0.010-0.039 0.019-0.049 0.029-0.029 0-0.029-0.029-0.029-0.039v-6.094c0-0.029 0-0.068 0.010-0.097 0.010-0.039 0.039-0.029 0.068-0.019 0.126 0.058 0.262 0.117 0.389 0.175 0.379 0.175 0.758 0.35 1.137 0.515 0.33 0.146 0.651 0.301 0.982 0.447s0.661 0.301 0.991 0.447c0.282 0.126 0.573 0.262 0.855 0.389s0.573 0.262 0.855 0.389c0.224 0.097 0.447 0.204 0.671 0.301 0 0.029 0.010 0.039 0.029 0.049z"></path>
<path fill="#fff" style="fill: var(--color76, #fff)" d="M15.784 25.749c0 0.010-0.010 0.019-0.010 0.029h-0.010c0-0.019-0.019-0.029-0.029-0.049-0.603-0.846-1.205-1.701-1.808-2.546-0.612-0.865-1.234-1.74-1.847-2.605-0.593-0.836-1.195-1.681-1.788-2.517-0.155-0.224-0.311-0.437-0.466-0.661-0.010-0.019-0.019-0.029-0.039-0.058 0.029 0 0.049 0.019 0.058 0.029 0.846 0.496 1.681 0.991 2.527 1.487 0.972 0.573 1.934 1.147 2.906 1.72l0.496 0.292c0.019 0.019 0.019 0.039 0.019 0.058v4.685c0 0.049 0 0.097-0.010 0.136z"></path>
<path fill="#fff" style="fill: var(--color76, #fff)" d="M9.778 16.194v-0.010c0.311-0.136 0.612-0.282 0.923-0.418 0.399-0.185 0.797-0.36 1.195-0.544 0.301-0.136 0.612-0.282 0.914-0.418 0.447-0.204 0.885-0.399 1.332-0.603 0.301-0.136 0.603-0.272 0.914-0.418 0.214-0.097 0.437-0.194 0.651-0.292 0.019-0.010 0.049-0.019 0.058-0.039 0.010 0 0.010 0.010 0 0.019v6.172c0 0.029-0.010 0.058 0.010 0.078-0.019 0.029-0.039 0-0.049-0.010-0.087-0.049-0.175-0.097-0.262-0.155-1.876-1.108-3.761-2.226-5.637-3.334-0.010-0.010-0.029-0.019-0.049-0.029z"></path>
<path fill="#fff" style="fill: var(--color76, #fff)" d="M21.733 17.341h0.010c0 0.019-0.019 0.039-0.029 0.058-1.788 2.517-3.577 5.044-5.365 7.562-0.185 0.262-0.379 0.525-0.564 0.787-0.010-0.010-0.010-0.019-0.010-0.029v-4.86c0.408-0.243 0.807-0.476 1.215-0.719 1.575-0.933 3.149-1.856 4.714-2.79 0.010 0.010 0.019 0 0.029-0.010z"></path>
<path fill="#fff" style="fill: var(--color76, #fff)" d="M15.775 13.473v-7.134c0-0.029-0.009-0.049 0.010-0.078 1.973 3.275 3.946 6.541 5.909 9.817 0.019 0.029 0.049 0.068 0.058 0.107-0.136-0.049-0.262-0.117-0.389-0.175-0.156-0.068-0.321-0.146-0.476-0.214-0.097-0.049-0.204-0.087-0.301-0.136-0.165-0.078-0.33-0.146-0.496-0.224-0.097-0.039-0.194-0.087-0.292-0.136l-0.642-0.292c-0.107-0.049-0.214-0.097-0.331-0.146l-0.466-0.204c-0.097-0.039-0.194-0.088-0.292-0.136l-0.641-0.292c-0.107-0.049-0.214-0.097-0.331-0.146l-0.467-0.204c-0.107-0.049-0.204-0.097-0.311-0.146-0.185-0.087-0.369-0.175-0.564-0.253 0.029-0.010 0.019-0.010 0.019-0.010z"></path>
</symbol>
<symbol id="icon-logo-4" viewBox="0 0 32 32">
<path fill="#2a5ada" style="fill: var(--color77, #2a5ada)" d="M15.649 0l-2.936 1.688-10.936 6.312v16l2.936 1.688 11.009 6.312 2.936-1.688 7.927-4.624 2.936-1.688v-16l-2.936-1.688-10.936-6.312zM7.649 20.624v-9.248l8-4.624 8 4.624v9.248l-8 4.624-8-4.624z"></path>
</symbol>
<symbol id="icon-path862" viewBox="0 0 32 32">
<path fill="#fff" style="fill: var(--color76, #fff)" d="M2.76 2.651c-1.012 1.063-1.847 1.956-1.855 1.973-0.008 0.025 0.902 0.919 2.024 1.982 1.122 1.071 2.1 2.007 2.167 2.066l0.127 0.118-0.228 0.379c-1.999 3.306-2.412 7.286-1.155 10.946 0.236 0.692 0.641 1.577 0.987 2.159 0.169 0.287 0.245 0.472 0.228 0.506s-1.037 1.113-2.268 2.403c-1.231 1.282-2.235 2.353-2.252 2.37-0.008 0.025 3.441 3.356 3.77 3.626l0.127 0.11 1.948-2.032c1.071-1.122 2.075-2.176 2.226-2.336l0.287-0.287 0.27 0.169c1.375 0.877 2.985 1.484 4.765 1.805 0.894 0.16 2.597 0.202 3.55 0.084 1.838-0.211 3.66-0.826 5.152-1.729l0.388-0.236 0.413 0.405c0.902 0.877 4.275 4.082 4.309 4.098s3.736-3.854 3.727-3.904c-0.008-0.025-2.547-2.462-4.098-3.921l-0.514-0.489 0.236-0.388c1.982-3.297 2.395-7.295 1.113-10.98-0.186-0.54-0.751-1.754-1.079-2.311l-0.16-0.278 2.167-2.268c1.189-1.24 2.159-2.277 2.15-2.302-0.034-0.084-3.829-3.668-3.879-3.668-0.034 0-0.987 0.97-2.125 2.167-1.138 1.189-2.083 2.167-2.108 2.176-0.017 0.008-0.126-0.042-0.228-0.118-0.287-0.194-1.012-0.59-1.417-0.776-1.231-0.565-2.378-0.911-3.71-1.105-0.692-0.101-2.766-0.118-3.407-0.025-1.535 0.219-2.791 0.599-4.073 1.24-0.371 0.177-0.801 0.413-0.97 0.514l-0.304 0.186-0.346-0.337c-0.186-0.186-1.029-0.978-1.864-1.779-0.835-0.793-1.687-1.602-1.889-1.805l-0.371-0.363-1.83 1.956zM16.919 8.149c1.341 0.16 2.538 0.616 3.643 1.391 0.565 0.396 1.408 1.24 1.805 1.805 2.252 3.188 1.821 7.522-1.012 10.178-2.42 2.26-5.92 2.766-8.863 1.265-2.125-1.088-3.626-3.078-4.107-5.464-0.152-0.759-0.152-2.176 0-2.926 0.143-0.742 0.337-1.273 0.7-2.015 1.45-2.918 4.596-4.621 7.834-4.233z"></path>
</symbol>
<symbol id="icon-Vector" viewBox="0 0 32 32">
<path fill="#0145d1" style="fill: var(--color78, #0145d1)" d="M15.794 0c-7.446 0-13.683 5.269-15.309 12.342h11.034v-3.379l11.452 7.036-11.452 7.036v-3.157h-10.981c1.704 6.962 7.887 12.121 15.256 12.121 8.683 0 15.721-7.163 15.721-16s-7.039-16-15.721-16z"></path>
</symbol>
<symbol id="icon-Vector-1" viewBox="0 0 32 32">
<path d="M32 8.456h-32v20.344h32v-20.344zM16 25.17c-3.72 0-6.737-2.929-6.737-6.542s3.016-6.542 6.737-6.542c3.721 0 6.737 2.929 6.737 6.542s-3.016 6.542-6.737 6.542zM12.216 3.2h7.568l2.49 3.898h-12.547l2.489-3.898zM20.042 18.628c0 2.168-1.81 3.925-4.042 3.925s-4.042-1.758-4.042-3.925 1.81-3.925 4.042-3.925c2.233 0 4.042 1.757 4.042 3.925z"></path>
</symbol>
<symbol id="icon-convex" viewBox="0 0 32 32">
<path fill="#1682fe" style="fill: var(--color79, #1682fe)" d="M20.006 6.24h-2.228v3.365h2.228v-3.365z"></path>
<path fill="#1682fe" style="fill: var(--color79, #1682fe)" d="M13.611 0h-2.228v3.365h2.228v-3.365z"></path>
<path fill="#60d8a4" style="fill: var(--color80, #60d8a4)" d="M7.215 3.209h-2.228v3.365h2.228v-3.365z"></path>
<path fill="#f4bb3b" style="fill: var(--color81, #f4bb3b)" d="M4.028 16h-2.251v9.604h2.251v-9.604z"></path>
<path fill="#60d8a4" style="fill: var(--color80, #60d8a4)" d="M4.028 6.396h-2.251v9.604h2.251v-9.604z"></path>
<path fill="#1682fe" style="fill: var(--color79, #1682fe)" d="M23.193 9.448h-2.228v3.365h2.228v-3.365z"></path>
<path fill="#ff5a5a" style="fill: var(--color82, #ff5a5a)" d="M23.193 19.187h-2.228v3.365h2.228v-3.365z"></path>
<path fill="#ff5a5a" style="fill: var(--color82, #ff5a5a)" d="M20.006 22.396h-2.228v3.365h2.228v-3.365z"></path>
<path fill="#ff5a5a" style="fill: var(--color82, #ff5a5a)" d="M13.611 28.635h-2.228v3.365h2.228v-3.365z"></path>
<path fill="#f4bb3b" style="fill: var(--color81, #f4bb3b)" d="M7.215 25.426h-2.228v3.365h2.228v-3.365z"></path>
<path fill="#3a3a3a" style="fill: var(--color83, #3a3a3a)" d="M29.455 12.791v-6.396h-3.209v-3.187h-6.396v-3.209h-6.396v3.209h-6.396v3.209h-3.209v19.187h3.209v3.209h6.396v3.209h6.396v-3.209h6.396v-3.209h3.209v-6.418h-6.396v3.209h-3.209v3.209h-6.396v-3.209h-3.187v-12.791h3.209v-3.209h6.396v3.209h3.209v3.209h6.373v-0.022z"></path>
</symbol>
<symbol id="icon-Ellipse-1" viewBox="0 0 32 32">
<path d="M32 16c0 8.837-7.163 16-16 16s-16-7.163-16-16c0-8.837 7.163-16 16-16s16 7.163 16 16z"></path>
</symbol>
<symbol id="icon-icon" viewBox="0 0 32 32">
<path fill="none" stroke="#a812d7" style="stroke: var(--color84, #a812d7)" stroke-linejoin="round" stroke-linecap="round" stroke-miterlimit="4" stroke-width="1.92" d="M15.731 12.126c2.14 0 3.874 1.734 3.874 3.874s-1.734 3.874-3.874 3.874c-2.14 0-3.874-1.734-3.874-3.874s1.734-3.874 3.874-3.874z"></path>
<path fill="none" stroke="#a812d7" style="stroke: var(--color84, #a812d7)" stroke-linejoin="round" stroke-linecap="round" stroke-miterlimit="4" stroke-width="1.92" d="M28.387 8.64c-1.059-1.847-3.404-2.479-5.236-1.413-1.594 0.926-3.586-0.233-3.586-2.086 0-2.132-1.717-3.862-3.834-3.862s-3.834 1.729-3.834 3.862c0 1.853-1.992 3.012-3.585 2.086-1.834-1.067-4.179-0.435-5.238 1.413-1.058 1.847-0.43 4.209 1.404 5.274 1.593 0.928 1.593 3.243 0 4.171-1.834 1.067-2.462 3.428-1.404 5.274 1.059 1.847 3.404 2.479 5.236 1.414h0.002c1.593-0.927 3.585 0.231 3.585 2.084 0 2.132 1.717 3.862 3.834 3.862s3.834-1.73 3.834-3.862c0-1.853 1.992-3.012 3.586-2.084 1.833 1.065 4.177 0.433 5.236-1.414 1.059-1.846 0.43-4.208-1.403-5.274h-0.002c-1.592-0.927-1.592-3.243 0.002-4.171 1.833-1.065 2.462-3.427 1.403-5.274z"></path>
</symbol>
<symbol id="icon-logo" viewBox="0 0 32 32">
<path fill="#016eac" style="fill: var(--color85, #016eac)" d="M32 16c0 8.837-7.163 16-16 16s-16-7.163-16-16c0-8.837 7.163-16 16-16s16 7.163 16 16z"></path>
<path fill="#fff" style="fill: var(--color76, #fff)" d="M11.333 25.768l9.473-15.823 3.193 1.781-8.423 14.052-4.243-0.010z"></path>
<path fill="#fff" style="fill: var(--color76, #fff)" d="M7.111 9.944l4.652 8.444h3.792l-4.652-8.444h-3.792z"></path>
<path fill="#fff" style="fill: var(--color76, #fff)" d="M23.784 8.889l1.272 5.278-6.333-3.771 5.061-1.507z"></path>
</symbol>
<symbol id="icon-chevron-thin-down" viewBox="0 0 20 20">
<path d="M17.418 6.109c0.272-0.268 0.709-0.268 0.979 0s0.271 0.701 0 0.969l-7.908 7.83c-0.27 0.268-0.707 0.268-0.979 0l-7.908-7.83c-0.27-0.268-0.27-0.701 0-0.969s0.709-0.268 0.979 0l7.419 7.141 7.418-7.141z"></path>
</symbol>
<symbol id="icon-search" viewBox="0 0 24 24">
<path d="M16.041 15.856c-0.034 0.026-0.067 0.055-0.099 0.087s-0.060 0.064-0.087 0.099c-1.258 1.213-2.969 1.958-4.855 1.958-1.933 0-3.682-0.782-4.95-2.050s-2.050-3.017-2.050-4.95 0.782-3.682 2.050-4.95 3.017-2.050 4.95-2.050 3.682 0.782 4.95 2.050 2.050 3.017 2.050 4.95c0 1.886-0.745 3.597-1.959 4.856zM21.707 20.293l-3.675-3.675c1.231-1.54 1.968-3.493 1.968-5.618 0-2.485-1.008-4.736-2.636-6.364s-3.879-2.636-6.364-2.636-4.736 1.008-6.364 2.636-2.636 3.879-2.636 6.364 1.008 4.736 2.636 6.364 3.879 2.636 6.364 2.636c2.125 0 4.078-0.737 5.618-1.968l3.675 3.675c0.391 0.391 1.024 0.391 1.414 0s0.391-1.024 0-1.414z"></path>
</symbol>
<symbol id="icon-chat" viewBox="0 0 48 48">
<path d="M0 33c0 2.21 1.79 4 4 4h6v6.17c0 1.11 0.9 2 2 2 0.561 0 1.069-0.23 1.43-0.6l7.57-7.57h22c2.21 0 4-1.79 4-4l-0-25c0-2.21-1.79-4-4-4l-39 0c-2.21 0-4 1.79-4 4v25zM12 21.5c0-1.38 1.12-2.5 2.5-2.5s2.5 1.12 2.5 2.5-1.12 2.5-2.5 2.5-2.5-1.12-2.5-2.5zM21 21.5c0-1.38 1.12-2.5 2.5-2.5s2.5 1.12 2.5 2.5-1.12 2.5-2.5 2.5-2.5-1.12-2.5-2.5zM30 21.5c0-1.38 1.12-2.5 2.5-2.5s2.5 1.12 2.5 2.5-1.12 2.5-2.5 2.5-2.5-1.12-2.5-2.5z"></path>
</symbol>
<symbol id="icon-twitter" viewBox="0 0 32 32">
<path d="M32 7.075c-1.175 0.525-2.444 0.875-3.769 1.031 1.356-0.813 2.394-2.1 2.887-3.631-1.269 0.75-2.675 1.3-4.169 1.594-1.2-1.275-2.906-2.069-4.794-2.069-3.625 0-6.563 2.938-6.563 6.563 0 0.512 0.056 1.012 0.169 1.494-5.456-0.275-10.294-2.888-13.531-6.862-0.563 0.969-0.887 2.1-0.887 3.3 0 2.275 1.156 4.287 2.919 5.463-1.075-0.031-2.087-0.331-2.975-0.819 0 0.025 0 0.056 0 0.081 0 3.181 2.263 5.838 5.269 6.437-0.55 0.15-1.131 0.231-1.731 0.231-0.425 0-0.831-0.044-1.237-0.119 0.838 2.606 3.263 4.506 6.131 4.563-2.25 1.762-5.075 2.813-8.156 2.813-0.531 0-1.050-0.031-1.569-0.094 2.913 1.869 6.362 2.95 10.069 2.95 12.075 0 18.681-10.006 18.681-18.681 0-0.287-0.006-0.569-0.019-0.85 1.281-0.919 2.394-2.075 3.275-3.394z"></path>
</symbol>
<symbol id="icon-vault" viewBox="0 0 32 32">
<path fill="#a812d7" style="fill: var(--color1, #a812d7)" d="M21.169 19.048c0.528-0.893 0.831-1.935 0.831-3.048s-0.303-2.155-0.831-3.048l2.391-2.391c0.586-0.586 0.586-1.536 0-2.121s-1.535-0.586-2.121 0l-2.391 2.391c-0.893-0.528-1.935-0.831-3.048-0.831s-2.155 0.303-3.048 0.831l-2.391-2.391c-0.586-0.586-1.535-0.586-2.121 0s-0.586 1.536 0 2.121l2.391 2.391c-0.528 0.893-0.831 1.935-0.831 3.048s0.303 2.155 0.831 3.048l-2.391 2.391c-0.586 0.586-0.586 1.535 0 2.121s1.535 0.586 2.121 0l2.391-2.391c0.893 0.528 1.935 0.831 3.048 0.831s2.155-0.303 3.048-0.831l2.391 2.391c0.586 0.586 1.535 0.586 2.121 0s0.586-1.535 0-2.121l-2.391-2.391zM16 19c-1.657 0-3-1.343-3-3s1.343-3 3-3c1.657 0 3 1.343 3 3s-1.343 3-3 3z"></path>
<path fill="#a812d7" style="fill: var(--color1, #a812d7)" d="M0 7.5c0-4.142 2.686-7.5 6-7.5h20c3.314 0 6 3.358 6 7.5v17c0 4.142-2.686 7.5-6 7.5h-20c-3.314 0-6-3.358-6-7.5v-17zM6 3c-1.988 0-3.6 2.015-3.6 4.5v17c0 2.485 1.612 4.5 3.6 4.5h20c1.988 0 3.6-2.015 3.6-4.5v-17c0-2.485-1.612-4.5-3.6-4.5h-20z"></path>
</symbol>
<symbol id="icon-Group-1" viewBox="0 0 33 32">
<path fill="#a812d7" style="fill: var(--color1, #a812d7)" d="M2.184 0.231h21.084c1.206 0 2.184 0.978 2.184 2.184v5.896h-2.184v-5.896h-21.084v13.35h3.53v2.184h-3.53c-1.206 0-2.184-0.978-2.184-2.184v-13.35c0-1.206 0.978-2.184 2.184-2.184z"></path>
<path fill="#a812d7" style="fill: var(--color1, #a812d7)" d="M10.186 10.494h21.084c1.206 0 2.184 0.977 2.184 2.184v13.35c0 1.206-0.978 2.184-2.184 2.184h-6.721l-2.15 2.556c-0.873 1.038-2.471 1.036-3.342 0l-2.15-2.556h-6.721c-0.678 0-1.285-0.309-1.685-0.795-0.022-0.027-0.044-0.055-0.065-0.082-0.272-0.364-0.434-0.817-0.434-1.307v-13.35c0-1.206 0.978-2.184 2.184-2.184zM10.186 26.028h7.738l2.804 3.334 2.804-3.334h7.738v-13.35h-21.084v13.35z"></path>
<path fill="#a812d7" style="fill: var(--color1, #a812d7)" d="M27.63 17.927h-13.803c-0.603 0-1.092-0.489-1.092-1.092s0.489-1.092 1.092-1.092h13.803c0.603 0 1.092 0.489 1.092 1.092s-0.489 1.092-1.092 1.092z"></path>
<path fill="#a812d7" style="fill: var(--color1, #a812d7)" d="M27.63 22.861h-5.65c-0.603 0-1.092-0.489-1.092-1.092s0.489-1.092 1.092-1.092h5.65c0.603 0 1.092 0.489 1.092 1.092s-0.489 1.092-1.092 1.092z"></path>
</symbol>

<symbol id="icon-Group-10" viewBox="0 0 32 32">
<path fill="#21272f" style="fill: var(--color1, #21272f)" d="M32 16c0 8.837-7.163 16-16 16s-16-7.163-16-16c0-8.837 7.163-16 16-16s16 7.163 16 16z"></path>
<path fill="#a812d7" style="fill: var(--color2, #a812d7)" d="M8.001 8.502h11.044c0.632 0 1.144 0.512 1.144 1.144v3.088h-1.144v-3.088h-11.044v6.993h1.849v1.144h-1.849c-0.632 0-1.144-0.512-1.144-1.144v-6.993c0-0.632 0.512-1.144 1.144-1.144z"></path>
<path fill="#a812d7" style="fill: var(--color2, #a812d7)" d="M12.193 13.878h11.044c0.632 0 1.144 0.512 1.144 1.144v6.993c0 0.632-0.512 1.144-1.144 1.144h-3.521l-1.126 1.339c-0.457 0.544-1.294 0.543-1.751 0l-1.126-1.339h-3.521c-0.355 0-0.673-0.162-0.883-0.416-0.012-0.014-0.023-0.029-0.034-0.043-0.143-0.191-0.227-0.428-0.227-0.684v-6.993c0-0.632 0.512-1.144 1.144-1.144zM12.193 22.015h4.053l1.469 1.746 1.469-1.746h4.053v-6.993h-11.044v6.993z"></path>
<path fill="#a812d7" style="fill: var(--color2, #a812d7)" d="M21.33 17.771h-7.23c-0.316 0-0.572-0.256-0.572-0.572s0.256-0.572 0.572-0.572h7.23c0.316 0 0.572 0.256 0.572 0.572s-0.256 0.572-0.572 0.572z"></path>
<path fill="#a812d7" style="fill: var(--color2, #a812d7)" d="M21.33 20.356h-2.96c-0.316 0-0.572-0.256-0.572-0.572s0.256-0.572 0.572-0.572h2.96c0.316 0 0.572 0.256 0.572 0.572s-0.256 0.572-0.572 0.572z"></path>
</symbol>
<symbol id="icon-Group-8" viewBox="0 0 32 32">
<path fill="#21272f" style="fill: var(--color1, #21272f)" d="M32 16c0 8.837-7.163 16-16 16s-16-7.163-16-16c0-8.837 7.163-16 16-16s16 7.163 16 16z"></path>
<path fill="#a812d7" style="fill: var(--color2, #a812d7)" d="M18.954 17.742c0.302-0.511 0.475-1.106 0.475-1.742s-0.173-1.231-0.475-1.742l1.366-1.366c0.335-0.335 0.335-0.877 0-1.212s-0.877-0.335-1.212 0l-1.366 1.366c-0.511-0.302-1.106-0.475-1.742-0.475s-1.231 0.173-1.742 0.475l-1.367-1.366c-0.335-0.335-0.877-0.335-1.212 0s-0.335 0.877 0 1.212l1.367 1.366c-0.302 0.51-0.475 1.106-0.475 1.742s0.173 1.231 0.475 1.742l-1.367 1.366c-0.335 0.335-0.335 0.877 0 1.212s0.877 0.335 1.212 0l1.367-1.366c0.51 0.302 1.106 0.475 1.742 0.475s1.231-0.173 1.742-0.475l1.366 1.366c0.335 0.335 0.877 0.335 1.212 0s0.335-0.877 0-1.212l-1.366-1.366zM16 17.714c-0.947 0-1.714-0.768-1.714-1.714s0.768-1.714 1.714-1.714c0.947 0 1.714 0.768 1.714 1.714s-0.768 1.714-1.714 1.714z"></path>
<path fill="#a812d7" style="fill: var(--color2, #a812d7)" d="M6.857 11.143c0-2.367 1.535-4.286 3.429-4.286h11.429c1.894 0 3.429 1.919 3.429 4.286v9.714c0 2.367-1.535 4.286-3.429 4.286h-11.429c-1.894 0-3.429-1.919-3.429-4.286v-9.714zM10.286 8.571c-1.136 0-2.057 1.151-2.057 2.571v9.714c0 1.42 0.921 2.571 2.057 2.571h11.429c1.136 0 2.057-1.151 2.057-2.571v-9.714c0-1.42-0.921-2.571-2.057-2.571h-11.429z"></path>
</symbol>
<symbol id="icon-vault-1" viewBox="0 0 32 32">
<path fill="#a812d7" style="fill: var(--color2, #a812d7)" d="M27.313 4.689c-3.125-3.126-6.896-4.689-11.313-4.689s-8.191 1.563-11.322 4.689c-3.118 3.132-4.678 6.904-4.678 11.316 0 4.418 1.559 8.193 4.678 11.326 3.131 3.113 6.906 4.669 11.322 4.669s8.188-1.556 11.313-4.669c3.125-3.132 4.687-6.908 4.687-11.326 0-4.412-1.563-8.184-4.687-11.316zM15.227 11.757l-0.020 0.039 0.010-0.039h0.010z"></path>
<path fill="#fff" style="fill: var(--color3, #fff)" d="M16.349 9.148c-0.294-0.29-0.766-0.29-1.060 0l-3.906 3.855c-0.294 0.29-0.294 0.755 0 1.044s0.766 0.29 1.060 0l2.635-2.597v10.138c0 0.41 0.333 0.738 0.749 0.738s0.749-0.328 0.749-0.738v-10.138l2.63 2.592c0.144 0.142 0.338 0.219 0.527 0.219s0.383-0.071 0.527-0.219c0.294-0.29 0.294-0.755 0-1.044l-3.912-3.849z"></path>
</symbol>
<symbol id="icon-vault-2" viewBox="0 0 32 32">
<path fill="#a812d7" style="fill: var(--color2, #a812d7)" d="M27.313 4.689c-3.125-3.126-6.896-4.689-11.313-4.689s-8.191 1.563-11.322 4.689c-3.118 3.132-4.678 6.904-4.678 11.316 0 4.418 1.559 8.193 4.678 11.326 3.131 3.113 6.906 4.669 11.322 4.669s8.188-1.556 11.313-4.669c3.125-3.132 4.687-6.908 4.687-11.326 0-4.412-1.563-8.184-4.687-11.316zM15.227 11.757l-0.020 0.039 0.010-0.039h0.010z"></path>
<path fill="#fff" style="fill: var(--color3, #fff)" d="M15.295 22.852c0.294 0.29 0.766 0.29 1.060 0l3.906-3.855c0.294-0.29 0.294-0.755 0-1.044s-0.766-0.29-1.060 0l-2.635 2.597v-10.138c0-0.41-0.333-0.738-0.749-0.738s-0.749 0.328-0.749 0.738v10.138l-2.63-2.592c-0.144-0.142-0.338-0.219-0.527-0.219s-0.383 0.071-0.527 0.219c-0.294 0.29-0.294 0.755 0 1.044l3.912 3.849z"></path>
</symbol>
<symbol id="icon-vault-3" viewBox="0 0 32 32">
<path fill="#a812d7" style="fill: var(--color2, #a812d7)" d="M27.313 4.689c-3.125-3.126-6.896-4.689-11.313-4.689s-8.191 1.563-11.322 4.689c-3.118 3.132-4.678 6.904-4.678 11.316 0 4.418 1.559 8.193 4.678 11.326 3.131 3.113 6.906 4.669 11.322 4.669s8.188-1.556 11.313-4.669c3.125-3.132 4.687-6.908 4.687-11.326 0-4.412-1.563-8.184-4.687-11.316zM15.227 11.757l-0.020 0.039 0.010-0.039h0.010z"></path>
<path fill="#fff" style="fill: var(--color3, #fff)" d="M10.419 13.396h9.674l-1.191 0.893c-0.078 0.059-0.144 0.132-0.194 0.216s-0.083 0.177-0.096 0.274c-0.014 0.097-0.008 0.195 0.016 0.29s0.067 0.184 0.126 0.262c0.069 0.092 0.159 0.167 0.263 0.219s0.217 0.079 0.333 0.079c0.161 0 0.318-0.052 0.447-0.149l2.977-2.233c0.091-0.069 0.165-0.159 0.216-0.262s0.077-0.216 0.077-0.33c0-0.115-0.026-0.227-0.077-0.33s-0.125-0.192-0.216-0.262l-2.873-2.233c-0.156-0.121-0.354-0.176-0.55-0.151s-0.374 0.126-0.496 0.282c-0.121 0.156-0.176 0.354-0.151 0.55s0.126 0.374 0.282 0.496l1.168 0.9h-9.734c-0.197 0-0.387 0.078-0.526 0.218s-0.218 0.329-0.218 0.526c0 0.197 0.078 0.387 0.218 0.526s0.329 0.218 0.526 0.218v0z"></path>
<path fill="#fff" style="fill: var(--color3, #fff)" d="M22.326 18.606h-9.674l1.191-0.893c0.158-0.118 0.262-0.295 0.29-0.49s-0.023-0.394-0.141-0.552c-0.118-0.158-0.295-0.262-0.49-0.29s-0.394 0.023-0.552 0.141l-2.977 2.233c-0.091 0.069-0.165 0.159-0.216 0.262s-0.077 0.216-0.077 0.33c0 0.114 0.026 0.227 0.077 0.33s0.125 0.192 0.216 0.262l2.873 2.233c0.13 0.101 0.29 0.156 0.454 0.156 0.114-0 0.226-0.027 0.328-0.077s0.191-0.123 0.26-0.213c0.121-0.155 0.175-0.352 0.152-0.547s-0.124-0.373-0.278-0.495l-1.168-0.9h9.734c0.197 0 0.387-0.078 0.526-0.218s0.218-0.329 0.218-0.526c0-0.197-0.078-0.387-0.218-0.526s-0.329-0.218-0.526-0.218z"></path>
</symbol>
<symbol id="icon-settings" viewBox="0 0 32 32">
<path d="M32 16c0 8.837-7.163 16-16 16s-16-7.163-16-16c0-8.837 7.163-16 16-16s16 7.163 16 16z"></path>
<path fill="none" stroke="#a812d7" style="stroke: var(--color1, #a812d7)" stroke-linejoin="round" stroke-linecap="round" stroke-miterlimit="4" stroke-width="1.1429" d="M16.221 14.075c1.274 0 2.306 1.032 2.306 2.306s-1.032 2.306-2.306 2.306c-1.274 0-2.306-1.032-2.306-2.306s1.032-2.306 2.306-2.306z"></path>
<path fill="none" stroke="#a812d7" style="stroke: var(--color1, #a812d7)" stroke-linejoin="round" stroke-linecap="round" stroke-miterlimit="4" stroke-width="1.1429" d="M23.754 12c-0.63-1.1-2.026-1.476-3.117-0.841-0.949 0.551-2.135-0.138-2.135-1.242 0-1.269-1.022-2.299-2.282-2.299s-2.282 1.030-2.282 2.299c0 1.103-1.186 1.793-2.134 1.242-1.092-0.635-2.487-0.259-3.118 0.841s-0.256 2.505 0.836 3.139c0.948 0.552 0.948 1.931 0 2.483-1.092 0.635-1.465 2.041-0.836 3.139s2.026 1.476 3.117 0.842h0.001c0.948-0.552 2.134 0.138 2.134 1.241 0 1.269 1.022 2.299 2.282 2.299s2.282-1.029 2.282-2.299c0-1.103 1.186-1.793 2.135-1.241 1.091 0.634 2.487 0.258 3.117-0.842s0.256-2.505-0.835-3.14h-0.001c-0.948-0.552-0.948-1.931 0.001-2.483 1.091-0.634 1.465-2.040 0.835-3.139z"></path>
</symbol>
<symbol id="icon-footer-icon-4" viewBox="0 0 38 32">
<path fill="#fff" style="fill: var(--color1, #fff)" d="M34.453 7.773c0.024 0.341 0.024 0.682 0.024 1.023 0 10.404-7.919 22.392-22.392 22.392-4.459 0-8.601-1.291-12.085-3.533 0.634 0.073 1.243 0.097 1.901 0.097 3.679 0 7.066-1.243 9.771-3.362-3.46-0.073-6.359-2.339-7.358-5.458 0.487 0.073 0.975 0.122 1.486 0.122 0.707 0 1.413-0.097 2.071-0.268-3.606-0.731-6.311-3.899-6.311-7.724v-0.097c1.048 0.585 2.266 0.95 3.557 0.999-2.12-1.413-3.509-3.825-3.509-6.554 0-1.462 0.39-2.802 1.072-3.972 3.874 4.776 9.698 7.894 16.227 8.236-0.122-0.585-0.195-1.194-0.195-1.803 0-4.337 3.509-7.87 7.87-7.87 2.266 0 4.313 0.95 5.75 2.485 1.779-0.341 3.484-0.999 4.995-1.901-0.585 1.827-1.827 3.362-3.46 4.337 1.584-0.17 3.119-0.609 4.532-1.218-1.072 1.559-2.412 2.948-3.947 4.069z"></path>
</symbol>
<symbol id="icon-footer-icon-3" viewBox="0 0 40 32">
<path fill="#fff" style="fill: var(--color1, #fff)" d="M15.326 21.799c0 1.721-0.898 4.538-3.022 4.538s-3.022-2.816-3.022-4.538c0-1.721 0.898-4.538 3.022-4.538s3.022 2.816 3.022 4.538zM39.529 17.64c0 2.627-0.264 5.411-1.441 7.824-3.121 6.308-11.702 6.16-17.846 6.16-6.242 0-15.334 0.222-18.579-6.16-1.202-2.388-1.664-5.196-1.664-7.824 0-3.451 1.145-6.712 3.418-9.355-0.428-1.301-0.634-2.668-0.634-4.019 0-1.771 0.404-2.66 1.202-4.266 3.731 0 6.119 0.741 8.96 2.965 2.388-0.568 4.842-0.824 7.305-0.824 2.224 0 4.464 0.239 6.621 0.758 2.8-2.199 5.188-2.899 8.878-2.899 0.807 1.606 1.202 2.495 1.202 4.266 0 1.351-0.214 2.693-0.634 3.969 2.265 2.668 3.212 5.954 3.212 9.405zM34.234 21.799c0-3.615-2.199-6.802-6.053-6.802-1.557 0-3.047 0.28-4.612 0.494-1.227 0.189-2.454 0.264-3.714 0.264-1.252 0-2.479-0.074-3.714-0.264-1.54-0.214-3.047-0.494-4.612-0.494-3.854 0-6.053 3.187-6.053 6.802 0 7.231 6.621 8.342 12.386 8.342h3.97c5.789 0 12.402-1.104 12.402-8.342zM27.432 17.261c-2.125 0-3.022 2.816-3.022 4.538s0.898 4.538 3.022 4.538c2.125 0 3.022-2.816 3.022-4.538s-0.898-4.538-3.022-4.538z"></path>
</symbol>
<symbol id="icon-footer-icon-2" viewBox="0 0 43 32">
<path d="M43.355 25.538c0-11.952-5.345-21.64-5.345-21.64-5.345-4.009-10.43-3.897-10.43-3.897l-0.52 0.594c6.31 1.93 9.243 4.714 9.243 4.714-8.817-4.833-19.175-4.833-27.728-1.076-1.373 0.631-2.19 1.076-2.19 1.076s3.081-2.932 9.762-4.863l-0.371-0.445c0 0-5.085-0.111-10.43 3.897 0 0-5.345 9.688-5.345 21.64 0 0 3.118 5.382 11.321 5.642 0 0 1.373-1.67 2.487-3.081-4.714-1.41-6.496-4.38-6.496-4.38 0.546 0.382 1.446 0.878 1.522 0.928 6.265 3.509 15.165 4.658 23.162 1.299 1.299-0.483 2.747-1.188 4.269-2.19 0 0-1.856 3.044-6.718 4.417 1.114 1.41 2.45 3.007 2.45 3.007 8.203-0.26 11.358-5.642 11.358-5.642zM28.285 22.086c2.116 0 3.786-1.856 3.786-4.12s-1.67-4.12-3.786-4.12c-2.116 0-3.786 1.856-3.786 4.12s1.707 4.12 3.786 4.12zM10.95 17.966c0-2.264 1.67-4.12 3.786-4.12s3.823 1.856 3.786 4.12c0 2.264-1.67 4.12-3.786 4.12-2.079 0-3.786-1.856-3.786-4.12z"></path>
</symbol>
<symbol id="icon-footer-icon-1" viewBox="0 0 32 32">
<path fill="#fff" style="fill: var(--color1, #fff)" d="M12.807 25.592h-12.796v6.398h12.796v-6.398z"></path>
<path fill="#fff" style="fill: var(--color1, #fff)" d="M31.992 25.592h-12.788v6.398h12.788v-6.398z"></path>
<path fill="#fff" style="fill: var(--color1, #fff)" d="M31.996 12.796h-31.996v6.398h31.996v-6.398z"></path>
<path fill="#fff" style="fill: var(--color1, #fff)" d="M19.207 0h-19.197v6.398h19.197v-6.398z"></path>
<path fill="#fff" style="fill: var(--color1, #fff)" d="M32 0h-6.398v6.398h6.398v-6.398z"></path>
</symbol>
<symbol id="icon-message-icon" viewBox="0 0 32 32">
<path fill="#0145d1" style="fill: var(--color2, #0145d1)" d="M32.042 16.063c0-4.379-1.558-8.126-4.674-11.242s-6.863-4.632-11.242-4.632c-4.379 0-8.126 1.558-11.242 4.632-3.116 3.116-4.674 6.863-4.674 11.242s1.558 8.126 4.674 11.242c3.116 3.116 6.863 4.632 11.242 4.632s8.126-1.558 11.242-4.632c3.116-3.116 4.674-6.863 4.674-11.242zM10.063 10.084c1.642-1.558 3.663-2.316 6.021-2.316s4.337 0.8 6.021 2.316c1.642 1.558 2.484 3.453 2.484 5.684s-0.842 4.084-2.484 5.642c-1.684 1.558-3.663 2.316-6.021 2.316-0.421 0-0.884-0.042-1.305-0.084h-0.042c-1.011-0.126-2.232 0-3.663 0.337-1.474 0.337-2.4 0.379-2.779 0.168-0.379-0.253-0.211-0.589 0.505-1.011 0.968-0.547 1.305-1.221 1.011-1.979-1.516-1.516-2.274-3.326-2.274-5.389 0.042-2.189 0.842-4.084 2.526-5.684zM20.253 14.674c-0.337 0-0.674 0.126-0.926 0.337-0.253 0.253-0.337 0.547-0.337 0.926 0 0.337 0.126 0.632 0.337 0.884 0.253 0.253 0.547 0.379 0.926 0.379 0.337 0 0.632-0.126 0.884-0.379s0.379-0.547 0.379-0.884-0.126-0.632-0.379-0.926c-0.211-0.211-0.505-0.337-0.884-0.337zM12.168 14.674c-0.337 0-0.674 0.126-0.926 0.337-0.253 0.253-0.337 0.547-0.337 0.926 0 0.337 0.126 0.632 0.337 0.884 0.253 0.253 0.547 0.379 0.926 0.379 0.337 0 0.632-0.126 0.884-0.379s0.379-0.547 0.379-0.884-0.126-0.632-0.379-0.926c-0.253-0.211-0.547-0.337-0.884-0.337zM16.211 14.674c-0.337 0-0.632 0.126-0.884 0.337-0.253 0.253-0.379 0.547-0.379 0.926 0 0.337 0.126 0.632 0.379 0.884s0.547 0.379 0.884 0.379 0.632-0.126 0.884-0.379c0.253-0.253 0.379-0.547 0.379-0.884s-0.126-0.632-0.379-0.926c-0.253-0.211-0.547-0.337-0.884-0.337z"></path>
</symbol>
<symbol id="icon-arrow-up" viewBox="0 0 24 24">
<path d="M7.406 15.422l-1.406-1.406 6-6 6 6-1.406 1.406-4.594-4.594z"></path>
</symbol>
<symbol id="icon-message-icon" viewBox="0 0 32 32">
<path fill="#0145d1" style="fill: var(--color2, #0145d1)" d="M32.042 16.063c0-4.379-1.558-8.126-4.674-11.242s-6.863-4.632-11.242-4.632c-4.379 0-8.126 1.558-11.242 4.632-3.116 3.116-4.674 6.863-4.674 11.242s1.558 8.126 4.674 11.242c3.116 3.116 6.863 4.632 11.242 4.632s8.126-1.558 11.242-4.632c3.116-3.116 4.674-6.863 4.674-11.242zM10.063 10.084c1.642-1.558 3.663-2.316 6.021-2.316s4.337 0.8 6.021 2.316c1.642 1.558 2.484 3.453 2.484 5.684s-0.842 4.084-2.484 5.642c-1.684 1.558-3.663 2.316-6.021 2.316-0.421 0-0.884-0.042-1.305-0.084h-0.042c-1.011-0.126-2.232 0-3.663 0.337-1.474 0.337-2.4 0.379-2.779 0.168-0.379-0.253-0.211-0.589 0.505-1.011 0.968-0.547 1.305-1.221 1.011-1.979-1.516-1.516-2.274-3.326-2.274-5.389 0.042-2.189 0.842-4.084 2.526-5.684zM20.253 14.674c-0.337 0-0.674 0.126-0.926 0.337-0.253 0.253-0.337 0.547-0.337 0.926 0 0.337 0.126 0.632 0.337 0.884 0.253 0.253 0.547 0.379 0.926 0.379 0.337 0 0.632-0.126 0.884-0.379s0.379-0.547 0.379-0.884-0.126-0.632-0.379-0.926c-0.211-0.211-0.505-0.337-0.884-0.337zM12.168 14.674c-0.337 0-0.674 0.126-0.926 0.337-0.253 0.253-0.337 0.547-0.337 0.926 0 0.337 0.126 0.632 0.337 0.884 0.253 0.253 0.547 0.379 0.926 0.379 0.337 0 0.632-0.126 0.884-0.379s0.379-0.547 0.379-0.884-0.126-0.632-0.379-0.926c-0.253-0.211-0.547-0.337-0.884-0.337zM16.211 14.674c-0.337 0-0.632 0.126-0.884 0.337-0.253 0.253-0.379 0.547-0.379 0.926 0 0.337 0.126 0.632 0.379 0.884s0.547 0.379 0.884 0.379 0.632-0.126 0.884-0.379c0.253-0.253 0.379-0.547 0.379-0.884s-0.126-0.632-0.379-0.926c-0.253-0.211-0.547-0.337-0.884-0.337z"></path>
</symbol>
<symbol id="icon-clear" viewBox="0 0 24 24">
<path d="M18.984 6.422l-5.578 5.578 5.578 5.578-1.406 1.406-5.578-5.578-5.578 5.578-1.406-1.406 5.578-5.578-5.578-5.578 1.406-1.406 5.578 5.578 5.578-5.578z"></path>
</symbol>
<symbol id="icon-send-message" viewBox="0 0 28 32">
<path fill="#0145d1" style="fill: var(--color1, #0145d1)" d="M0.533 3.147c0.853 7.040 2.987 10.667 6.4 10.987l12.053 1.6-12.053 1.6c-3.413 0.32-5.547 4.053-6.4 11.093-0.64 2.56 0.107 3.307 2.133 2.24l22.293-12.267c0.96-0.533 1.707-1.067 2.133-1.6 0.533-0.64 0.533-1.387 0-2.027-0.427-0.533-1.173-1.067-2.133-1.6l-22.293-12.267c-2.027-1.173-2.773-0.427-2.133 2.24z"></path>
</symbol>
</defs>
</svg>
